<svg preserveAspectRatio="none" width="100%" height="100%" overflow="visible" style="display: block;" viewBox="0 0 16 16" fill="none" xmlns="http://www.w3.org/2000/svg">
<path id="screwdriver-wrench" d="M6.97146 3.00932V4.53509L7.92773 5.46712C7.82986 4.98702 7.8399 4.49112 7.95712 4.0154C8.07434 3.53968 8.2958 3.09608 8.60541 2.7168C8.91503 2.33752 9.30504 2.03208 9.74714 1.82265C10.1892 1.61322 10.6723 1.50505 11.1613 1.506H11.1965L9.37786 3.29416L9.85039 6.1314L12.6824 6.60436L14.4712 4.80978C14.4759 5.25166 14.392 5.68999 14.2243 6.09872C14.0567 6.50745 13.8087 6.87822 13.4952 7.18902C13.2101 7.4754 12.8735 7.70514 12.5032 7.86613C12.5565 7.91957 12.6243 7.95698 12.6792 8.01149L13.6365 8.97345C13.9714 8.77112 14.2808 8.52926 14.5581 8.25305C15.1455 7.66232 15.5709 6.92974 15.7932 6.12612C16.0154 5.3225 16.0271 4.47502 15.8269 3.66559C15.7805 3.47856 15.6855 3.30718 15.5516 3.16891C15.4176 3.03063 15.2495 2.93039 15.0643 2.87839C14.8828 2.8246 14.6899 2.82246 14.5073 2.8722C14.3247 2.92194 14.1595 3.02159 14.0301 3.16003L12.1949 4.99576L11.1816 4.82742L11.0136 3.81202L12.8467 1.97735C12.9835 1.84688 13.0818 1.68112 13.1307 1.4983C13.1796 1.31549 13.1773 1.12269 13.124 0.941114C13.0729 0.754368 12.9728 0.584765 12.8341 0.449977C12.6953 0.315188 12.523 0.220147 12.3352 0.174755C11.528 -0.0305731 10.6813 -0.0216059 9.87862 0.200773C9.07592 0.423153 8.3449 0.851269 7.75759 1.44293C7.45259 1.75531 7.18631 2.10341 6.96453 2.47971L6.99973 2.50322L6.97146 3.00932ZM3.31226 14.2124C3.10896 14.4046 2.84003 14.5116 2.56053 14.5116C2.28103 14.5116 2.0121 14.4046 1.8088 14.2124C1.71054 14.1193 1.63217 14.0073 1.57845 13.883C1.52473 13.7587 1.49676 13.6247 1.49626 13.4893C1.49271 13.3532 1.51884 13.2181 1.57282 13.0932C1.6268 12.9683 1.70733 12.8567 1.8088 12.7662L6.00933 8.50476L4.95013 7.44287L0.750129 11.645C0.284417 12.1252 0.0166323 12.7638 0.000261959 13.4332C-0.00464115 13.7712 0.059331 14.1067 0.188265 14.4192C0.3172 14.7316 0.508386 15.0144 0.750129 15.2502C0.985471 15.4882 1.26555 15.6772 1.57418 15.8061C1.88281 15.9351 2.21388 16.0015 2.54826 16.0015C2.88264 16.0015 3.21371 15.9351 3.52235 15.8061C3.83098 15.6772 4.11105 15.4882 4.3464 15.2502L7.49946 12.0907C7.19829 11.5983 7.02995 11.0359 7.01093 10.4586L3.31226 14.2124ZM15.6584 12.3868L11.9992 8.72334C11.656 8.38044 11.2141 8.15404 10.7357 8.076C10.2573 7.99796 9.76657 8.07222 9.33253 8.28832L5.97253 4.94713V3.00558L1.9976 0L0.000261959 1.97735L3.00026 5.95718H4.93839L8.27279 9.29517C8.05816 9.73037 7.98467 10.2219 8.06261 10.701C8.14055 11.1802 8.36601 11.6229 8.70746 11.9673L12.3635 15.6339C12.4714 15.7427 12.5997 15.829 12.741 15.8879C12.8823 15.9468 13.0339 15.9772 13.1869 15.9772C13.34 15.9772 13.4915 15.9468 13.6329 15.8879C13.7742 15.829 13.9025 15.7427 14.0104 15.6339L15.6589 13.982C15.7663 13.879 15.8518 13.7552 15.9101 13.6182C15.9685 13.4811 15.9986 13.3337 15.9986 13.1847C15.9986 13.0357 15.9685 12.8882 15.9101 12.7512C15.8518 12.6142 15.7663 12.4904 15.6589 12.3873L15.6584 12.3868Z" fill="var(--fill-0, #00A3E0)"/>
</svg>
