<svg preserveAspectRatio="none" width="100%" height="100%" overflow="visible" style="display: block;" viewBox="0 0 8 8" fill="none" xmlns="http://www.w3.org/2000/svg">
<path id="Star 2" d="M3.78223 1.65332C3.94507 1.22223 4.55493 1.22224 4.71777 1.65332L5.03809 2.5C5.19276 2.90948 5.51817 3.23168 5.92969 3.38086L6.73633 3.67285C7.17541 3.83232 7.1755 4.45391 6.73633 4.61328L5.92969 4.90527C5.51831 5.05444 5.19278 5.37583 5.03809 5.78516L4.71777 6.63281C4.55482 7.06357 3.94517 7.06357 3.78223 6.63281L3.46191 5.78516C3.30722 5.37583 2.98169 5.05444 2.57031 4.90527L1.76367 4.61328C1.3245 4.45391 1.32459 3.83232 1.76367 3.67285L2.57031 3.38086C2.98183 3.23168 3.30723 2.90948 3.46191 2.5L3.78223 1.65332Z" fill="var(--fill-0, white)" stroke="var(--stroke-0, #FFC627)"/>
</svg>
