<svg preserveAspectRatio="none" width="100%" height="100%" overflow="visible" style="display: block;" viewBox="0 0 21 16" fill="none" xmlns="http://www.w3.org/2000/svg">
<path id="Vector" d="M5.83359 8C5.83359 5.475 7.92274 3.42857 10.5005 3.42857C13.0782 3.42857 15.1673 5.475 15.1673 8C15.1673 10.525 13.0782 12.5714 10.5005 12.5714C7.92274 12.5714 5.83359 10.525 5.83359 8ZM10.5005 10.8571C12.112 10.8571 13.4173 9.57857 13.4173 8C13.4173 6.42143 12.112 5.14286 10.5005 5.14286C10.4749 5.14286 10.4531 5.14286 10.3947 5.14286C10.4749 5.325 10.5005 5.51786 10.5005 5.71429C10.5005 6.975 9.45406 8 8.16702 8C7.96649 8 7.76961 7.975 7.58367 7.89643C7.58367 7.95357 7.58367 7.975 7.58367 7.96786C7.58367 9.57857 8.88893 10.8571 10.5005 10.8571ZM3.47901 2.87857C5.19554 1.31571 7.5545 0 10.5005 0C13.4464 0 15.8054 1.31571 17.5226 2.87857C19.229 4.42857 20.3702 6.25357 20.9098 7.56071C21.0301 7.84286 21.0301 8.15714 20.9098 8.43929C20.3702 9.71429 19.229 11.5393 17.5226 13.1214C15.8054 14.6857 13.4464 16 10.5005 16C7.5545 16 5.19554 14.6857 3.47901 13.1214C1.77269 11.5393 0.632219 9.71429 0.0897324 8.43929C-0.0299108 8.15714 -0.0299108 7.84286 0.0897324 7.56071C0.632219 6.25357 1.77269 4.42857 3.47901 2.87857ZM10.5005 1.71429C8.12327 1.71429 6.16902 2.77143 4.67052 4.13214C3.26681 5.41071 2.29771 6.89643 1.80258 8C2.29771 9.07143 3.26681 10.5893 4.67052 11.8679C6.16902 13.2286 8.12327 14.2857 10.5005 14.2857C12.8776 14.2857 14.8319 13.2286 16.3304 11.8679C17.7341 10.5893 18.6711 9.07143 19.1998 8C18.6711 6.89643 17.7341 5.41071 16.3304 4.13214C14.8319 2.77143 12.8776 1.71429 10.5005 1.71429Z" fill="var(--fill-0, #484848)"/>
</svg>
