<svg preserveAspectRatio="none" width="100%" height="100%" overflow="visible" style="display: block;" viewBox="0 0 18 18" fill="none" xmlns="http://www.w3.org/2000/svg">
<g id="user-alt">
<path id="Vector" d="M9 9C11.4844 9 13.5 6.98438 13.5 4.5C13.5 2.01562 11.4844 0 9 0C6.51562 0 4.5 2.01562 4.5 4.5C4.5 6.98438 6.51562 9 9 9ZM13 10H11.2781C10.5844 10.3187 9.8125 10.5 9 10.5C8.1875 10.5 7.41875 10.3187 6.72188 10H5C2.79063 10 1 11.7906 1 14V14.5C1 15.3281 1.67188 16 2.5 16H15.5C16.3281 16 17 15.3281 17 14.5V14C17 11.7906 15.2094 10 13 10Z" fill="var(--fill-0, #484848)"/>
</g>
</svg>
