<svg preserveAspectRatio="none" width="100%" height="100%" overflow="visible" style="display: block;" viewBox="0 0 16 16" fill="none" xmlns="http://www.w3.org/2000/svg">
<path id="circle-plus" d="M7.50027 11V8.50027H5C4.87022 8.49603 4.74717 8.44149 4.65687 8.34819C4.56656 8.25488 4.51607 8.13012 4.51607 8.00027C4.51607 7.87042 4.56656 7.74565 4.65687 7.65235C4.74717 7.55904 4.87022 7.50451 5 7.50027H7.50027V5C7.50451 4.87022 7.55904 4.74717 7.65235 4.65686C7.74566 4.56656 7.87042 4.51607 8.00027 4.51607C8.13012 4.51607 8.25488 4.56656 8.34819 4.65686C8.44149 4.74717 8.49603 4.87022 8.50027 5V7.50027H11.0005C11.1303 7.50451 11.2534 7.55904 11.3437 7.65235C11.434 7.74565 11.4845 7.87042 11.4845 8.00027C11.4845 8.13012 11.434 8.25488 11.3437 8.34819C11.2534 8.44149 11.1303 8.49603 11.0005 8.50027H8.50027V11.0005C8.49603 11.1303 8.44149 11.2534 8.34819 11.3437C8.25488 11.434 8.13012 11.4845 8.00027 11.4845C7.87042 11.4845 7.74566 11.434 7.65235 11.3437C7.55904 11.2534 7.50451 11.1298 7.50027 11ZM16 8C16 9.58225 15.5308 11.129 14.6518 12.4446C13.7727 13.7602 12.5233 14.7855 11.0615 15.391C9.59966 15.9965 7.99113 16.155 6.43928 15.8463C4.88743 15.5376 3.46197 14.7757 2.34315 13.6569C1.22433 12.538 0.462403 11.1126 0.153721 9.56072C-0.15496 8.00888 0.00346629 6.40034 0.608967 4.93853C1.21447 3.47672 2.23985 2.22729 3.55544 1.34824C4.87103 0.469192 6.41775 0 8 0C10.1217 0 12.1566 0.842855 13.6569 2.34315C15.1571 3.84344 16 5.87827 16 8ZM8 1C6.61553 1 5.26216 1.41054 4.11101 2.17971C2.95987 2.94888 2.06266 4.04213 1.53285 5.32122C1.00303 6.6003 0.86441 8.00777 1.13451 9.36563C1.4046 10.7235 2.07129 11.9708 3.05026 12.9497C4.02922 13.9287 5.2765 14.5954 6.63437 14.8655C7.99224 15.1356 9.3997 14.997 10.6788 14.4672C11.9579 13.9373 13.0511 13.0401 13.8203 11.889C14.5895 10.7378 15 9.38447 15 8C14.9999 6.14353 14.2623 4.36313 12.9496 3.05041C11.6369 1.73768 9.85647 1.00014 8 1Z" fill="var(--fill-0, #8C1D40)"/>
</svg>
