<svg preserveAspectRatio="none" width="100%" height="100%" overflow="visible" style="display: block;" viewBox="0 0 16 16" fill="none" xmlns="http://www.w3.org/2000/svg">
<g id="message-lines 1" clip-path="url(#clip0_1_696)">
<path id="Vector" d="M11.25 4.5H4.75C4.3375 4.5 4 4.8375 4 5.25C4 5.6625 4.3375 6 4.75 6H11.25C11.6656 6 12 5.66563 12 5.25C12 4.83437 11.6656 4.5 11.25 4.5ZM8.25 7.5H4.75C4.3375 7.5 4 7.8375 4 8.25C4 8.6625 4.3375 9 4.75 9H8.25C8.66562 9 9 8.66563 9 8.25C9 7.83437 8.66562 7.5 8.25 7.5ZM13.9719 0H1.97188C0.870313 0 -0.028125 0.898438 -0.028125 1.97187V10.9438C-0.028125 12.0453 0.870313 12.9156 1.97188 12.9156H4.97188V15.5125C4.97188 15.8199 5.31625 15.9984 5.56937 15.8156L9.4725 12.8875H13.9725C15.0741 12.8875 15.9725 11.9891 15.9725 10.9156V1.97187C15.9719 0.898438 15.1 0 13.9719 0ZM14.5 11C14.5 11.2734 14.2734 11.5 14 11.5H9L6.5 13.375V11.5H2C1.72656 11.5 1.5 11.2734 1.5 11V2C1.5 1.72656 1.72656 1.5 2 1.5H14C14.2734 1.5 14.5 1.72656 14.5 2V11Z" fill="var(--fill-0, #484848)"/>
</g>
<defs>
<clipPath id="clip0_1_696">
<rect width="16" height="16" fill="white"/>
</clipPath>
</defs>
</svg>
