<svg preserveAspectRatio="none" width="100%" height="100%" overflow="visible" style="display: block;" viewBox="0 0 48 48" fill="none" xmlns="http://www.w3.org/2000/svg">
<g id="Frame 97">
<rect width="48" height="48" rx="24" fill="var(--fill-0, #FFC627)"/>
<path id="Vector" d="M36 23.9578C36 24.0422 35.9578 24.0844 35.9578 24.1266C35.9813 25.8375 34.425 26.9578 32.7141 26.9578H28.125C26.8828 26.9578 25.875 28.0078 25.875 29.25C25.875 29.4094 25.8937 29.5641 25.9219 29.7141C26.025 30.1922 26.2266 30.6141 26.4328 31.1156C26.7141 31.7625 27 32.4047 27 33.0844C27 34.5797 25.9875 35.9297 24.4969 35.9906C24.3328 35.9953 24.1641 36 24 36C17.3719 36 12 30.6281 12 24C12 17.3719 17.3719 12 24 12C30.6281 12 36 17.3719 36 24V23.9578ZM16.5 23.9578C15.6717 23.9578 15 24.6703 15 25.4578C15 26.3297 15.6717 26.9578 16.5 26.9578C17.3297 26.9578 18 26.3297 18 25.4578C18 24.6703 17.3297 23.9578 16.5 23.9578ZM18 20.9578C18.8297 20.9578 19.5 20.3297 19.5 19.4578C19.5 18.6703 18.8297 17.9578 18 17.9578C17.1703 17.9578 16.5 18.6703 16.5 19.4578C16.5 20.3297 17.1703 20.9578 18 20.9578ZM24 14.9578C23.1703 14.9578 22.5 15.6717 22.5 16.4578C22.5 17.3297 23.1703 17.9578 24 17.9578C24.8297 17.9578 25.5 17.3297 25.5 16.4578C25.5 15.6717 24.8297 14.9578 24 14.9578ZM30 20.9578C30.8297 20.9578 31.5 20.3297 31.5 19.4578C31.5 18.6703 30.8297 17.9578 30 17.9578C29.1703 17.9578 28.5 18.6703 28.5 19.4578C28.5 20.3297 29.1703 20.9578 30 20.9578Z" fill="var(--fill-0, #484848)"/>
</g>
</svg>
