<svg preserveAspectRatio="none" width="100%" height="100%" overflow="visible" style="display: block;" viewBox="0 0 17 16" fill="none" xmlns="http://www.w3.org/2000/svg">
<path id="people-arrows-left-right" d="M3.30538 10.7217V15.25C3.30538 15.4489 3.38001 15.6397 3.51284 15.7803C3.64568 15.921 3.82585 16 4.01371 16C4.20157 16 4.38174 15.921 4.51458 15.7803C4.64742 15.6397 4.72204 15.4489 4.72204 15.25V12.2241L3.31785 10.7397C3.31479 10.7329 3.31056 10.7268 3.30538 10.7217ZM1.41668 6.99977C1.41683 6.86727 1.46661 6.74023 1.5551 6.64653C1.64359 6.55283 1.76357 6.50012 1.88871 6.49996H3.77798C3.90312 6.50012 4.0231 6.55283 4.11159 6.64653C4.20008 6.74023 4.24986 6.86727 4.25001 6.99977V7.27518L5.20654 6.26236C5.2774 6.18838 5.3544 6.12131 5.43661 6.06195C5.27681 5.74255 5.03812 5.47507 4.74602 5.28804C4.45391 5.101 4.11934 5.00142 3.77798 4.99993H1.88871C1.38789 5.00024 0.907668 5.21104 0.553534 5.58602C0.199399 5.96099 0.000315485 6.46948 1.52324e-05 6.99977V9.99985C-0.00138679 10.2607 0.094045 10.5117 0.265752 10.6988C0.437459 10.8859 0.671701 10.9941 0.918014 11.0001L0.944648 15.25C0.944648 15.4489 1.01928 15.6397 1.15211 15.7803C1.28495 15.921 1.46512 16 1.65298 16C1.84084 16 2.02101 15.921 2.15385 15.7803C2.28669 15.6397 2.36131 15.4489 2.36131 15.25V9.49944H1.41668V6.99977ZM2.83335 3.9997C3.20687 3.9997 3.57201 3.88243 3.88259 3.66271C4.19317 3.44299 4.43525 3.13069 4.57822 2.7653C4.72119 2.39991 4.75863 1.99784 4.6858 1.60992C4.61297 1.222 4.43314 0.865663 4.16906 0.585955C3.90498 0.306248 3.56849 0.115733 3.20216 0.0385006C2.83583 -0.0387317 2.45609 0.000786354 2.11097 0.152058C1.76584 0.30333 1.47083 0.559563 1.26323 0.888357C1.05563 1.21715 0.94476 1.60374 0.944648 1.99925C0.944424 2.26197 0.99312 2.52216 1.08795 2.76493C1.18278 3.0077 1.32188 3.2283 1.4973 3.4141C1.67272 3.5999 1.88101 3.74725 2.11027 3.84773C2.33952 3.94822 2.58523 3.99986 2.83335 3.9997ZM14.1667 3.9997C14.5402 3.9997 14.9054 3.88241 15.216 3.66266C15.5266 3.44292 15.7686 3.13058 15.9116 2.76516C16.0546 2.39974 16.092 1.99763 16.0191 1.6097C15.9462 1.22177 15.7663 0.865427 15.5022 0.585743C15.238 0.306059 14.9015 0.115592 14.5351 0.0384275C14.1688 -0.0387372 13.789 0.0008665 13.4439 0.15223C13.0988 0.303594 12.8038 0.55992 12.5963 0.888794C12.3887 1.21767 12.278 1.60432 12.278 1.99985C12.2778 2.26252 12.3266 2.52264 12.4214 2.76535C12.5163 3.00805 12.6554 3.22858 12.8308 3.41431C13.0062 3.60004 13.2145 3.74735 13.4437 3.84779C13.6729 3.94824 13.9186 3.99986 14.1667 3.9997ZM12.278 12.2247V15.25C12.278 15.4489 12.3526 15.6397 12.4854 15.7803C12.6183 15.921 12.7984 16 12.9863 16C13.1742 16 13.3543 15.921 13.4872 15.7803C13.62 15.6397 13.6946 15.4489 13.6946 15.25V10.7217C13.6901 10.7265 13.6873 10.7325 13.6827 10.7373L12.278 12.2247ZM15.1113 4.99933H13.222C12.8806 5.00024 12.5458 5.09957 12.2536 5.28667C11.9614 5.47377 11.7228 5.74157 11.5634 6.06135C11.6456 6.12071 11.7226 6.18778 11.7935 6.26176L12.75 7.27458V6.99977C12.7502 6.86727 12.7999 6.74023 12.8884 6.64653C12.9769 6.55283 13.0969 6.50012 13.222 6.49996H15.1107C15.2359 6.50012 15.3559 6.55283 15.4443 6.64653C15.5328 6.74023 15.5826 6.86727 15.5828 6.99977V9.50004H14.6387V15.25C14.6387 15.4489 14.7133 15.6397 14.8462 15.7803C14.979 15.921 15.1592 16 15.347 16C15.5349 16 15.7151 15.921 15.8479 15.7803C15.9807 15.6397 16.0554 15.4489 16.0554 15.25V10.9995C16.3058 10.9995 16.546 10.8942 16.7231 10.7067C16.9003 10.5193 16.9999 10.265 17 9.99985V6.99977C16.9997 6.46942 16.8006 5.96088 16.4465 5.58581C16.0924 5.21074 15.6122 4.9998 15.1113 4.99933ZM12.9891 8.96842L11.1004 6.96857C10.9676 6.8279 10.7874 6.74887 10.5995 6.74887C10.4116 6.74887 10.2314 6.8279 10.0986 6.96857C9.96572 7.10925 9.89108 7.30004 9.89108 7.49899C9.89108 7.69793 9.96572 7.88873 10.0986 8.0294L10.8052 8.74942H6.19481L6.87481 8.0294C7.00766 7.88873 7.0823 7.69793 7.0823 7.49899C7.0823 7.30004 7.00766 7.10925 6.87481 6.96857C6.74195 6.8279 6.56176 6.74887 6.37388 6.74887C6.18599 6.74887 6.0058 6.8279 5.87294 6.96857L3.98425 8.96902C3.91845 9.03867 3.86626 9.12136 3.83065 9.21237C3.79504 9.30338 3.77671 9.40093 3.77671 9.49944C3.77671 9.59795 3.79504 9.69549 3.83065 9.7865C3.86626 9.87751 3.91845 9.9602 3.98425 10.0299L5.87294 12.0297C6.00644 12.1672 6.1857 12.2436 6.37195 12.2423C6.5582 12.241 6.73649 12.1621 6.86826 12.0228C7.00004 11.8834 7.07472 11.6947 7.07616 11.4975C7.07759 11.3003 7.00567 11.1104 6.87594 10.9689L6.19594 10.2489H10.8029L10.1229 10.9689C9.99008 11.1098 9.91554 11.3008 9.9157 11.4999C9.91585 11.699 9.99071 11.8899 10.1238 12.0306C10.2569 12.1713 10.4373 12.2502 10.6253 12.25C10.8134 12.2499 10.9937 12.1706 11.1265 12.0297L13.0152 10.0299C13.0818 9.95974 13.1341 9.87598 13.169 9.7837C13.2039 9.69142 13.2207 9.59256 13.2182 9.49319C13.2158 9.39381 13.1942 9.29601 13.1548 9.20578C13.1154 9.11554 13.059 9.03478 12.9891 8.96842Z" fill="var(--fill-0, #8C1D40)"/>
</svg>
