<svg preserveAspectRatio="none" width="100%" height="100%" overflow="visible" style="display: block;" viewBox="0 0 12 12" fill="none" xmlns="http://www.w3.org/2000/svg">
<path id="Star 1" d="M5.88184 1.65332C6.04467 1.22224 6.65454 1.22225 6.81738 1.65332L7.70508 4.00195C7.85972 4.41129 8.18534 4.73261 8.59668 4.88184L10.9355 5.72949C11.375 5.8888 11.375 6.51062 10.9355 6.66992L8.59668 7.51758C8.18524 7.66678 7.85974 7.98901 7.70508 8.39844L6.81738 10.7471C6.65435 11.1778 6.04468 11.1779 5.88184 10.7471L4.99512 8.39844C4.84044 7.98895 4.51407 7.66675 4.10254 7.51758L1.76367 6.66992C1.3246 6.51043 1.32448 5.88885 1.76367 5.72949L4.10254 4.88184C4.51407 4.73266 4.84044 4.41144 4.99512 4.00195L5.88184 1.65332Z" fill="var(--fill-0, white)" stroke="var(--stroke-0, #FFC627)"/>
</svg>
