<svg preserveAspectRatio="none" width="100%" height="100%" overflow="visible" style="display: block;" viewBox="0 0 12 12" fill="none" xmlns="http://www.w3.org/2000/svg">
<path id="Star 3" d="M5.53125 1.70801C5.69236 1.27279 6.30764 1.27279 6.46875 1.70801L7.26172 3.85156C7.41365 4.26214 7.73786 4.58635 8.14844 4.73828L10.292 5.53125C10.7272 5.69236 10.7272 6.30764 10.292 6.46875L8.14844 7.26172C7.73786 7.41365 7.41365 7.73786 7.26172 8.14844L6.46875 10.292C6.30764 10.7272 5.69236 10.7272 5.53125 10.292L4.73828 8.14844C4.58635 7.73786 4.26214 7.41365 3.85156 7.26172L1.70801 6.46875C1.27279 6.30764 1.27279 5.69236 1.70801 5.53125L3.85156 4.73828C4.26214 4.58635 4.58635 4.26214 4.73828 3.85156L5.53125 1.70801Z" fill="var(--fill-0, white)" stroke="var(--stroke-0, #FFC627)"/>
</svg>
