<svg preserveAspectRatio="none" width="100%" height="100%" overflow="visible" style="display: block;" viewBox="0 0 48 48" fill="none" xmlns="http://www.w3.org/2000/svg">
<g id="Frame 97">
<rect width="48" height="48" rx="24" fill="var(--fill-0, #FFC627)"/>
<path id="Vector" d="M35.1201 13.9793C36.2933 15.152 36.2933 17.0554 35.1201 18.2286L32.4736 20.8753L27.1241 15.5265L29.7706 12.8798C30.9438 11.7067 32.849 11.7067 34.0221 12.8798L35.1201 13.9793ZM14.1065 28.5478L26.0635 16.588L31.413 21.9358L19.4517 33.8928C19.1373 34.2072 18.7479 34.4372 18.3161 34.5639L13.4354 35.9576C13.0422 36.0702 12.6189 35.9576 12.3299 35.6291C12.0407 35.3804 11.931 34.9581 12.0434 34.5639L13.4383 29.6835C13.5607 29.2517 13.7907 28.8622 14.1065 28.5478ZM23.7032 16.8254L16.8521 23.6768L12.7508 19.5707C11.8712 18.6931 11.8712 17.2666 12.7508 16.3871L16.4138 12.724C17.2932 11.8444 18.7197 11.8444 19.5972 12.724L20.5263 13.6513C20.5123 13.6649 20.4935 13.6795 20.4794 13.6949L17.4762 16.6987C17.1806 16.9897 17.1806 17.4683 17.4762 17.7593C17.7671 18.0549 18.2458 18.0549 18.5367 17.7593L21.5399 14.7564C21.554 14.7414 21.5305 14.7255 21.5822 14.709L23.7032 16.8254ZM33.2901 26.4173C33.276 26.4267 33.2572 26.4455 33.2431 26.4596L30.2399 29.4629C29.9443 29.7539 29.9443 30.2325 30.2399 30.5235C30.5308 30.8191 31.0095 30.8191 31.3004 30.5235L34.3036 27.5201C34.3177 27.4638 34.2943 27.4873 34.3459 27.4732L35.275 28.4024C36.1525 29.2799 36.1525 30.7065 35.275 31.584L31.6101 35.249C30.7326 36.1266 29.3061 36.1266 28.4286 35.249L24.3226 31.1476L31.1737 24.2962L33.2901 26.4173Z" fill="var(--fill-0, #484848)"/>
</g>
</svg>
