<svg preserveAspectRatio="none" width="100%" height="100%" overflow="visible" style="display: block;" viewBox="0 0 11 28" fill="none" xmlns="http://www.w3.org/2000/svg">
<g id="Frame 427321801">
<path id="Vector" d="M3.00187 20.1982C3.00219 20.3947 3.06031 20.5872 3.16937 20.751L3.70344 21.5538C3.79467 21.691 3.91841 21.8035 4.06366 21.8814C4.2089 21.9593 4.37114 22 4.53594 22H6.46438C6.62917 22 6.79141 21.9593 6.93665 21.8814C7.0819 21.8035 7.20564 21.691 7.29688 21.5538L7.83094 20.751C7.93995 20.5872 7.99822 20.3949 7.99844 20.1982L7.99969 18.9998H3.00031L3.00187 20.1982ZM0 11.4999C0 12.8864 0.514063 14.1514 1.36125 15.118C1.8775 15.707 2.685 16.9376 2.99281 17.9757C2.99406 17.9838 2.995 17.992 2.99625 18.0001H8.00375C8.005 17.992 8.00594 17.9841 8.00719 17.9757C8.315 16.9376 9.1225 15.707 9.63875 15.118C10.4859 14.1514 11 12.8864 11 11.4999C11 8.45654 8.52844 5.99065 5.48281 6.00003C2.295 6.00971 0 8.59278 0 11.4999ZM5.5 8.99996C4.12156 8.99996 3 10.1215 3 11.4999C3 11.7762 2.77625 11.9999 2.5 11.9999C2.22375 11.9999 2 11.7762 2 11.4999C2 9.56995 3.57 7.99998 5.5 7.99998C5.77625 7.99998 6 8.22373 6 8.49997C6 8.77622 5.77625 8.99996 5.5 8.99996Z" fill="var(--fill-0, #00B0F3)"/>
</g>
</svg>
