<svg preserveAspectRatio="none" width="100%" height="100%" overflow="visible" style="display: block;" viewBox="0 0 26 26" fill="none" xmlns="http://www.w3.org/2000/svg">
<path id="Star 1" d="M12.0621 1.5345C12.3843 0.663884 13.6157 0.663887 13.9379 1.53451L16.6217 8.78749C16.723 9.06121 16.9388 9.27702 17.2125 9.3783L24.4655 12.0621C25.3361 12.3843 25.3361 13.6157 24.4655 13.9379L17.2125 16.6217C16.9388 16.723 16.723 16.9388 16.6217 17.2125L13.9379 24.4655C13.6157 25.3361 12.3843 25.3361 12.0621 24.4655L9.3783 17.2125C9.27702 16.9388 9.06121 16.723 8.78749 16.6217L1.5345 13.9379C0.663884 13.6157 0.663887 12.3843 1.53451 12.0621L8.78749 9.3783C9.06121 9.27702 9.27702 9.06121 9.3783 8.78749L12.0621 1.5345Z" fill="var(--fill-0, #4B4B4B)"/>
</svg>
