<svg preserveAspectRatio="none" width="100%" height="100%" overflow="visible" style="display: block;" viewBox="0 0 40 40" fill="none" xmlns="http://www.w3.org/2000/svg">
<g id="Group 76746">
<path id="Ellipse 8979" d="M20 40C31.0457 40 40 31.0457 40 20C40 8.9543 31.0457 0 20 0C8.9543 0 0 8.9543 0 20C0 31.0457 8.9543 40 20 40Z" fill="var(--fill-0, #FFC627)"/>
<g id="Arrow-up">
<path id="Path 287" d="M26.2236 19.6805C26.1198 19.7875 25.9954 19.8724 25.858 19.9302C25.7205 19.9879 25.5728 20.0173 25.4237 20.0165C25.2748 20.0166 25.1273 19.987 24.9899 19.9295C24.8526 19.8719 24.7281 19.7875 24.6237 19.6813L20.908 15.9119V26.8865C20.9094 27.0318 20.8822 27.1759 20.8277 27.3106C20.7733 27.4454 20.6928 27.568 20.5908 27.6715C20.4888 27.775 20.3673 27.8573 20.2334 27.9136C20.0995 27.97 19.9557 27.9994 19.8104 28C19.5104 28.001 19.2216 27.8855 19.0051 27.6778C18.7885 27.47 18.6611 27.1863 18.6497 26.8865V15.9119L14.9307 19.6805C14.8265 19.7869 14.702 19.8715 14.5646 19.9292C14.4273 19.9869 14.2798 20.0166 14.1308 20.0166C13.9818 20.0166 13.8343 19.9869 13.6969 19.9292C13.5596 19.8715 13.4351 19.7869 13.3308 19.6805C13.1188 19.4644 13 19.1737 13 18.8709C13 18.5682 13.1188 18.2775 13.3308 18.0614L18.9777 12.3361C19.082 12.2297 19.2064 12.1452 19.3438 12.0875C19.4811 12.0297 19.6286 12 19.7776 12C19.9266 12 20.0741 12.0297 20.2115 12.0875C20.3488 12.1452 20.4733 12.2297 20.5776 12.3361L26.2244 18.0614C26.4362 18.2777 26.5547 18.5684 26.5545 18.8711C26.5544 19.1738 26.4356 19.4644 26.2236 19.6805Z" fill="var(--fill-0, black)"/>
</g>
</g>
</svg>
