<svg preserveAspectRatio="none" width="100%" height="100%" overflow="visible" style="display: block;" viewBox="0 0 18 18" fill="none" xmlns="http://www.w3.org/2000/svg">
<path id="Vector" d="M17.0584 11.9012C17.9383 12.7811 17.9383 14.2101 17.0584 15.09L15.1087 17.0399C14.2289 17.9199 12.8 17.9199 11.9201 17.0399L9.62551 14.7451L10.8221 13.5484L13.1167 15.8432C13.3349 16.0333 13.6939 16.0333 13.9121 15.8432L15.8619 13.8933C16.0519 13.6751 16.0519 13.3161 15.8619 13.0979L15.2847 12.5206L14.4752 13.3302C14.257 13.5519 13.898 13.5519 13.6798 13.3302C13.4581 13.1119 13.4581 12.7529 13.6798 12.5347L14.4893 11.7252L13.5672 10.803L14.7638 9.60631L17.0584 11.9012ZM3.25613 8.37441L0.961136 6.07955C0.0816417 5.19962 0.0816417 3.77062 0.961136 2.89245L2.91193 0.941471C3.79037 0.0616126 5.21924 0.0616126 6.09908 0.941471L8.39372 3.23632L7.19713 4.43232L6.27505 3.51016L5.4656 4.31969C5.24739 4.54144 4.88842 4.54144 4.67021 4.31969C4.44849 4.10147 4.44849 3.74246 4.67021 3.52424L5.47967 2.7133L4.90249 2.13606C4.68429 1.91608 4.32532 1.91608 4.10711 2.13606L2.15561 4.08739C1.93601 4.30561 1.93601 4.66463 2.15561 4.88285L4.45201 7.1777L3.25613 8.37441ZM2.0613 11.3662L12.7648 0.659894C13.6446 -0.219965 15.0735 -0.219965 15.9534 0.659894L17.34 2.04772C17.4491 2.15753 17.5441 2.27615 17.6286 2.4011C18.2058 3.27539 18.1107 4.464 17.34 5.23482L6.63403 15.9383C6.58828 15.984 6.54253 15.9981 6.49326 16.072C6.15539 16.3712 5.75419 16.5613 5.31778 16.7196L1.08291 17.9656C0.786574 18.0536 0.465959 17.9727 0.247405 17.7228C0.028844 17.5362 -0.0528691 17.2159 0.0343412 16.9168L1.27999 12.6825C1.4264 12.1863 1.69493 11.7322 2.0613 11.3662ZM2.90067 13.1577L2.09191 15.9101L4.84266 15.1006C5.03623 15.0337 5.27203 14.9105 5.44096 14.7451L13.4792 6.70254L11.2655 4.48864L3.25577 12.5593C3.23501 12.5805 3.21495 12.6016 3.19559 12.6262C3.05974 12.7776 2.95874 12.9606 2.90067 13.1577Z" fill="var(--fill-0, #484848)"/>
</svg>
