<svg preserveAspectRatio="none" width="100%" height="100%" overflow="visible" style="display: block;" viewBox="0 0 14 16" fill="none" xmlns="http://www.w3.org/2000/svg">
<path id="Vector" d="M14 11V1.5C14 0.672813 13.3281 0 12.5 0H2.5C1.12156 0 0 1.12125 0 2.5V13.5C0 14.8781 1.12156 16 2.5 16H13.25C13.6641 16 14 15.6641 14 15.25C14 14.8359 13.6641 14.5 13.25 14.5H13V12.4078C13.5813 12.2 14 11.65 14 11ZM11.5 14.5H2.5C1.94875 14.5 1.5 14.0519 1.5 13.5C1.5 12.9481 1.94875 12.5 2.5 12.5H11.5V14.5ZM12.5 11H2.5C2.14437 11 1.80625 11.0742 1.5 11.209V2.5C1.5 1.94813 1.94875 1.5 2.5 1.5H6V6.47188C6 6.89094 6.485 7.12437 6.78438 6.86219L8.5 5.5L10.1875 6.88938C10.5156 7.15 11 6.91875 11 6.47188V1.5H12.5V11Z" fill="var(--fill-0, #484848)"/>
</svg>
