<svg preserveAspectRatio="none" width="100%" height="100%" overflow="visible" style="display: block;" viewBox="0 0 14 16" fill="none" xmlns="http://www.w3.org/2000/svg">
<g id="square-exclamation 1">
<path id="Vector" d="M7 10.5344C6.4575 10.5344 6.0175 10.9744 6.0175 11.5169C6.01875 12.0594 6.45625 12.5 7 12.5C7.54375 12.5 7.9825 12.06 7.9825 11.5175C7.98125 10.975 7.54375 10.5344 7 10.5344ZM7 9.5C7.41406 9.5 7.75 9.16406 7.75 8.75V4.75C7.75 4.3375 7.41563 4 7 4C6.58437 4 6.25 4.3375 6.25 4.75V8.75C6.25 9.16563 6.5875 9.5 7 9.5ZM12 1H2C0.895313 1 0 1.89531 0 3V13C0 14.1047 0.895313 15 2 15H12C13.1047 15 14 14.1047 14 13V3C14 1.89531 13.1031 1 12 1ZM12.5 13C12.5 13.2757 12.2757 13.5 12 13.5H2C1.72431 13.5 1.5 13.2757 1.5 13V3C1.5 2.72431 1.72431 2.5 2 2.5H12C12.2757 2.5 12.5 2.72431 12.5 3V13Z" fill="var(--fill-0, #484848)"/>
</g>
</svg>
