<svg preserveAspectRatio="none" width="100%" height="100%" overflow="visible" style="display: block;" viewBox="0 0 30 27" fill="none" xmlns="http://www.w3.org/2000/svg">
<path id="people-arrows-left-right" d="M5.83303 17.869V25.416C5.83303 25.7475 5.96472 26.0655 6.19914 26.2999C6.43356 26.5343 6.75151 26.666 7.08303 26.666C7.41455 26.666 7.73249 26.5343 7.96691 26.2999C8.20133 26.0655 8.33303 25.7475 8.33303 25.416V20.373L5.85503 17.899C5.84963 17.8877 5.84217 17.8775 5.83303 17.869ZM2.50003 11.666C2.50029 11.4452 2.58814 11.2334 2.7443 11.0773C2.90046 10.9211 3.11218 10.8333 3.33303 10.833H6.66703C6.88787 10.8333 7.09959 10.9211 7.25575 11.0773C7.41191 11.2334 7.49976 11.4452 7.50003 11.666V12.125L9.18803 10.437C9.31307 10.3137 9.44895 10.2019 9.59403 10.103C9.31202 9.57069 8.89081 9.1249 8.37533 8.81318C7.85985 8.50146 7.26942 8.3355 6.66703 8.333H3.33303C2.44922 8.33353 1.60177 8.68486 0.976825 9.3098C0.351881 9.93474 0.000556739 10.7822 2.68808e-05 11.666V16.666C-0.00244728 17.1008 0.165962 17.5191 0.468975 17.8309C0.771988 18.1427 1.18535 18.323 1.62003 18.333L1.66703 25.416C1.66703 25.7475 1.79872 26.0655 2.03314 26.2999C2.26756 26.5343 2.58551 26.666 2.91703 26.666C3.24855 26.666 3.56649 26.5343 3.80091 26.2999C4.03533 26.0655 4.16703 25.7475 4.16703 25.416V15.832H2.50003V11.666ZM5.00003 6.666C5.65919 6.666 6.30355 6.47055 6.85164 6.10436C7.39973 5.73817 7.82693 5.21768 8.07922 4.60872C8.33152 3.99975 8.39758 3.32964 8.26906 2.68313C8.14053 2.03662 7.8232 1.44274 7.35717 0.976568C6.89114 0.5104 6.29735 0.192884 5.65088 0.0641661C5.0044 -0.0645513 4.33428 0.00131056 3.72524 0.253424C3.11619 0.505538 2.59558 0.932581 2.22922 1.48056C1.86287 2.02854 1.66722 2.67284 1.66703 3.332C1.66663 3.76986 1.75257 4.20349 1.91991 4.6081C2.08726 5.01272 2.33274 5.38037 2.6423 5.69002C2.95186 5.99968 3.31944 6.24526 3.724 6.41273C4.12856 6.5802 4.56217 6.66626 5.00003 6.666ZM25 6.666C25.6592 6.666 26.3036 6.47052 26.8517 6.10429C27.3999 5.73805 27.8271 5.21751 28.0793 4.60849C28.3316 3.99946 28.3976 3.3293 28.269 2.68277C28.1404 2.03623 27.8229 1.44234 27.3568 0.976215C26.8907 0.510086 26.2968 0.192649 25.6503 0.0640442C25.0037 -0.0645604 24.3336 0.00144413 23.7245 0.253711C23.1155 0.505978 22.595 0.933177 22.2287 1.48129C21.8625 2.02939 21.667 2.6738 21.667 3.333C21.6668 3.77077 21.7528 4.2043 21.9202 4.6088C22.0876 5.01329 22.3331 5.38082 22.6427 5.69037C22.9522 5.99992 23.3197 6.24542 23.7242 6.41283C24.1287 6.58023 24.5623 6.66626 25 6.666ZM21.667 20.374V25.416C21.667 25.7475 21.7987 26.0655 22.0331 26.2999C22.2676 26.5343 22.5855 26.666 22.917 26.666C23.2485 26.666 23.5665 26.5343 23.8009 26.2999C24.0353 26.0655 24.167 25.7475 24.167 25.416V17.869C24.159 17.877 24.154 17.887 24.146 17.895L21.667 20.374ZM26.667 8.332H23.333C22.7304 8.33352 22.1396 8.49907 21.6239 8.8109C21.1083 9.12272 20.6873 9.56905 20.406 10.102C20.5511 10.2009 20.687 10.3127 20.812 10.436L22.5 12.124V11.666C22.5003 11.4452 22.5881 11.2334 22.7443 11.0773C22.9005 10.9211 23.1122 10.8333 23.333 10.833H26.666C26.8869 10.8333 27.0986 10.9211 27.2548 11.0773C27.4109 11.2334 27.4988 11.4452 27.499 11.666V15.833H25.833V25.416C25.833 25.7475 25.9647 26.0655 26.1991 26.2999C26.4336 26.5343 26.7515 26.666 27.083 26.666C27.4145 26.666 27.7325 26.5343 27.9669 26.2999C28.2013 26.0655 28.333 25.7475 28.333 25.416V18.332C28.775 18.332 29.1988 18.1565 29.5114 17.8441C29.824 17.5317 29.9998 17.1079 30 16.666V11.666C29.9995 10.7821 29.6482 9.93455 29.0233 9.30945C28.3984 8.68434 27.5509 8.3328 26.667 8.332ZM22.922 14.947L19.589 11.614C19.3546 11.3795 19.0366 11.2478 18.705 11.2478C18.3735 11.2478 18.0555 11.3795 17.821 11.614C17.5866 11.8485 17.4549 12.1664 17.4549 12.498C17.4549 12.8296 17.5866 13.1476 17.821 13.382L19.068 14.582H10.932L12.132 13.382C12.3665 13.1476 12.4982 12.8296 12.4982 12.498C12.4982 12.1664 12.3665 11.8485 12.132 11.614C11.8976 11.3795 11.5796 11.2478 11.248 11.2478C10.9165 11.2478 10.5985 11.3795 10.364 11.614L7.03103 14.948C6.91492 15.0641 6.82281 15.2019 6.75998 15.3536C6.69714 15.5052 6.66479 15.6678 6.66479 15.832C6.66479 15.9962 6.69714 16.1588 6.75998 16.3104C6.82281 16.4621 6.91492 16.5999 7.03103 16.716L10.364 20.049C10.5996 20.2782 10.9159 20.4055 11.2446 20.4033C11.5733 20.4012 11.8879 20.2697 12.1205 20.0374C12.353 19.8052 12.4848 19.4907 12.4873 19.162C12.4899 18.8333 12.363 18.5168 12.134 18.281L10.934 17.081H19.064L17.864 18.281C17.6296 18.5159 17.498 18.8342 17.4983 19.1661C17.4986 19.4979 17.6307 19.8161 17.8655 20.0505C18.1004 20.285 18.4187 20.4165 18.7506 20.4162C19.0824 20.4159 19.4006 20.2839 19.635 20.049L22.968 16.716C23.0855 16.5992 23.1778 16.4596 23.2394 16.3058C23.3011 16.152 23.3306 15.9872 23.3263 15.8216C23.322 15.656 23.2839 15.493 23.2144 15.3426C23.1449 15.1922 23.0454 15.0576 22.922 14.947Z" fill="var(--fill-0, #8C1D40)"/>
</svg>
