<svg preserveAspectRatio="none" width="100%" height="100%" overflow="visible" style="display: block;" viewBox="0 0 30 35" fill="none" xmlns="http://www.w3.org/2000/svg">
<path id="files-medical" d="M20 12.676C19.9976 12.4389 19.9018 12.2123 19.7332 12.0454C19.5647 11.8786 19.3371 11.785 19.1 11.785H17.319C17.0827 11.7868 16.8567 11.8815 16.6896 12.0486C16.5225 12.2157 16.4278 12.4417 16.426 12.678V15.357H13.748C13.6289 15.3521 13.5101 15.3721 13.3992 15.4157C13.2883 15.4594 13.1877 15.5256 13.1039 15.6103C13.02 15.695 12.9547 15.7963 12.9122 15.9076C12.8697 16.019 12.8509 16.138 12.857 16.257V18.043C12.8522 18.1616 12.872 18.2798 12.9152 18.3903C12.9584 18.5008 13.024 18.6012 13.1079 18.6851C13.1918 18.769 13.2922 18.8346 13.4027 18.8778C13.5132 18.921 13.6314 18.9408 13.75 18.936H16.429V21.615C16.4308 21.8513 16.5255 22.0773 16.6926 22.2444C16.8597 22.4115 17.0857 22.5062 17.322 22.508H19.108C19.3451 22.5059 19.5719 22.4103 19.7389 22.2419C19.9059 22.0736 19.9997 21.8461 20 21.609V18.931H22.679C22.9135 18.9199 23.1353 18.8213 23.3006 18.6547C23.4659 18.4881 23.5628 18.2655 23.572 18.031V16.252C23.5702 16.0157 23.4755 15.7897 23.3084 15.6226C23.1413 15.4555 22.9153 15.3608 22.679 15.359H20V12.676ZM28.746 6.253L23.746 1.253C22.9415 0.452822 21.8537 0.00252813 20.719 4.66678e-07H10.719C10.1559 -0.000262238 9.59825 0.11039 9.0779 0.32564C8.55756 0.540889 8.0847 0.85652 7.68634 1.25451C7.28798 1.6525 6.9719 2.12506 6.75617 2.64521C6.54044 3.16535 6.42926 3.72289 6.429 4.286V23.571C6.429 24.7077 6.88056 25.7979 7.68434 26.6017C8.48812 27.4054 9.57828 27.857 10.715 27.857H25.715C26.8504 27.853 27.9382 27.4002 28.7409 26.5972C29.5437 25.7943 29.9963 24.7064 30 23.571V9.281C29.9999 8.14575 29.5496 7.05686 28.748 6.253H28.746ZM26.786 23.571C26.786 23.7116 26.7583 23.8509 26.7045 23.9809C26.6507 24.1108 26.5718 24.2289 26.4723 24.3283C26.3729 24.4278 26.2548 24.5067 26.1249 24.5605C25.9949 24.6143 25.8556 24.642 25.715 24.642H10.715C10.5744 24.642 10.4351 24.6143 10.3051 24.5605C10.1752 24.5067 10.0571 24.4278 9.95769 24.3283C9.85824 24.2289 9.77935 24.1108 9.72552 23.9809C9.6717 23.8509 9.644 23.7116 9.644 23.571V4.294C9.644 4.00995 9.75684 3.73754 9.95769 3.53669C10.1585 3.33584 10.431 3.223 10.715 3.223H19.286V8.571C19.286 9.13936 19.5118 9.68444 19.9137 10.0863C20.3156 10.4882 20.8606 10.714 21.429 10.714H26.785L26.786 23.571ZM21.964 34.286H8.036C5.90529 34.2841 3.86238 33.4369 2.35574 31.9303C0.849097 30.4236 0.0018536 28.3807 0 26.25L0 8.036C0 7.6098 0.169308 7.20105 0.470679 6.89968C0.77205 6.59831 1.1808 6.429 1.607 6.429C2.0332 6.429 2.44195 6.59831 2.74332 6.89968C3.04469 7.20105 3.214 7.6098 3.214 8.036V26.25C3.21559 27.5281 3.72402 28.7534 4.62779 29.6572C5.53156 30.561 6.75688 31.0694 8.035 31.071H21.964C22.3902 31.071 22.7989 31.2403 23.1003 31.5417C23.4017 31.8431 23.571 32.2518 23.571 32.678C23.571 33.1042 23.4017 33.5129 23.1003 33.8143C22.7989 34.1157 22.3902 34.286 21.964 34.286Z" fill="var(--fill-0, #FFC627)"/>
</svg>
