<svg preserveAspectRatio="none" width="100%" height="100%" overflow="visible" style="display: block;" viewBox="0 0 16 9" fill="none" xmlns="http://www.w3.org/2000/svg">
<path id="angle-down-solid" d="M7.06181 8.62337C7.31213 8.86453 7.65149 9 8.00531 9C8.35914 9 8.69849 8.86453 8.94881 8.62337L15.6128 2.19669C15.863 1.95537 16.0036 1.62807 16.0036 1.28679C16.0036 0.94551 15.863 0.618212 15.6128 0.376891C15.3626 0.13557 15.0232 0 14.6693 0C14.3154 0 13.976 0.13557 13.7258 0.376891L8.00281 5.89608L2.27781 0.381718C2.02758 0.140397 1.68819 0.00481193 1.33431 0.00481194C0.980429 0.00481194 0.641042 0.140397 0.39081 0.381718C0.140578 0.623038 6.97584e-09 0.950336 0 1.29162C-6.97585e-09 1.63289 0.140578 1.96019 0.39081 2.20151L7.05481 8.6282L7.06181 8.62337Z" fill="var(--fill-0, #484848)"/>
</svg>
