<svg preserveAspectRatio="none" width="100%" height="100%" overflow="visible" style="display: block;" viewBox="0 0 16 16" fill="none" xmlns="http://www.w3.org/2000/svg">
<g id="toolbox 1">
<path id="Vector" d="M15.7063 6.70625L13.2922 4.29219C13.1063 4.10625 12.85 4 12.5844 4H12V2.75C12 1.78531 11.2156 1 10.25 1H5.75C4.78438 1 4 1.78531 4 2.75V4H3.41563C3.15 4 2.89469 4.10625 2.70719 4.29375L0.292906 6.70625C0.105344 6.89375 0 7.15 0 7.41563V13C0 14.1047 0.895313 15 2 15H14C15.1047 15 16 14.1047 16 13V7.41563C16 7.15 15.8938 6.89375 15.7063 6.70625ZM5.5 2.75C5.5 2.61231 5.61231 2.5 5.75 2.5H10.25C10.3877 2.5 10.5 2.61231 10.5 2.75V4H5.5V2.75ZM3.62188 5.5H12.3781L14.5 7.62187V9.25H11.75V8.72188C11.75 8.33438 11.4156 8 11 8C10.5844 8 10.25 8.33594 10.25 8.72188V9.25H5.75V8.72188C5.75 8.33438 5.41563 8 5 8C4.58437 8 4.25 8.33438 4.25 8.72188V9.25H1.5V7.62187L3.62188 5.5ZM14 13.5H2C1.72384 13.5 1.5 13.2762 1.5 13V10.75H4.25V11.25C4.25 11.6656 4.58438 12 4.97188 12C5.41563 12 5.75 11.6656 5.75 11.25V10.75H10.25V11.25C10.25 11.6656 10.5844 12 11 12C11.4156 12 11.75 11.6641 11.75 11.2781V10.75H14.5V13C14.5 13.275 14.275 13.5 14 13.5Z" fill="var(--fill-0, #484848)"/>
</g>
</svg>
