<svg preserveAspectRatio="none" width="100%" height="100%" overflow="visible" style="display: block;" viewBox="0 0 18 14" fill="none" xmlns="http://www.w3.org/2000/svg">
<path id="Vector" d="M5.00022 7C5.00022 4.79063 6.79092 3 9.00039 3C11.2099 3 13.0006 4.79063 13.0006 7C13.0006 9.20937 11.2099 11 9.00039 11C6.79092 11 5.00022 9.20937 5.00022 7ZM9.00039 9.5C10.3817 9.5 11.5005 8.38125 11.5005 7C11.5005 5.61875 10.3817 4.5 9.00039 4.5C8.97852 4.5 8.95977 4.5 8.90976 4.5C8.97852 4.65937 9.00039 4.82812 9.00039 5C9.00039 6.10312 8.10348 7 7.00031 7C6.82842 7 6.65967 6.97813 6.50029 6.90938C6.50029 6.95938 6.50029 6.97813 6.50029 6.97188C6.50029 8.38125 7.61908 9.5 9.00039 9.5ZM2.98201 2.51875C4.45332 1.15125 6.47528 0 9.00039 0C11.5255 0 13.5475 1.15125 15.0194 2.51875C16.482 3.875 17.4601 5.47187 17.9227 6.61562C18.0258 6.8625 18.0258 7.1375 17.9227 7.38437C17.4601 8.5 16.482 10.0969 15.0194 11.4812C13.5475 12.85 11.5255 14 9.00039 14C6.47528 14 4.45332 12.85 2.98201 11.4812C1.51944 10.0969 0.541902 8.5 0.0769135 7.38437C-0.0256378 7.1375 -0.0256378 6.8625 0.0769135 6.61562C0.541902 5.47187 1.51944 3.875 2.98201 2.51875ZM9.00039 1.5C6.96281 1.5 5.28773 2.425 4.0033 3.61562C2.80013 4.73437 1.96946 6.03438 1.54507 7C1.96946 7.9375 2.80013 9.26562 4.0033 10.3844C5.28773 11.575 6.96281 12.5 9.00039 12.5C11.038 12.5 12.7131 11.575 13.9975 10.3844C15.2007 9.26562 16.0038 7.9375 16.457 7C16.0038 6.03438 15.2007 4.73437 13.9975 3.61562C12.7131 2.425 11.038 1.5 9.00039 1.5Z" fill="var(--fill-0, #484848)"/>
</svg>
