<svg preserveAspectRatio="none" width="100%" height="100%" overflow="visible" style="display: block;" viewBox="0 0 16 16" fill="none" xmlns="http://www.w3.org/2000/svg">
<path id="Vector" d="M14.3719 6C14.3523 6 14.3289 6 14.3094 6.00391C12.75 6.09063 9.91875 6.40938 8 7.4875C6.08187 6.40938 3.25 6.08906 1.69062 6.00313C1.67187 6 1.64844 6 1.62875 6C0.992187 6 0 6.45 0 7.56875V13.1031C0 13.9687 0.664063 14.6562 1.51188 14.7C2.58625 14.7586 5.2775 14.9852 7.04313 15.8719C7.2125 15.9562 7.39062 16 7.575 16H8.4225C8.60219 16 8.78969 15.957 8.9575 15.8711C10.7231 14.9842 13.4138 14.7577 14.4888 14.6992C15.3375 14.6562 16 13.9688 16 13.1313V7.56875C16 6.45 15.0094 6 14.3719 6ZM7.25 14.325C5.35563 13.5203 2.93438 13.2744 1.59063 13.2037C1.535 13.2 1.5 13.1625 1.5 13.1313L1.48438 7.55937C1.50781 7.53125 1.59 7.50313 1.60563 7.5C2.72656 7.5625 5.51562 7.81563 7.25 8.7875V14.325ZM14.5 13.1313C14.5 13.1625 14.4648 13.1977 14.4102 13.2016C13.0702 13.2719 10.6477 13.5178 8.75078 14.3266V8.7875C10.4812 7.81875 13.2531 7.56562 14.3719 7.5C14.4187 7.50313 14.4937 7.53437 14.5 7.56875V13.1313ZM8 6C9.65625 6 11 4.65625 11 3C11 1.34375 9.65625 0 8 0C6.34375 0 5 1.34375 5 3C5 4.65625 6.34375 6 8 6ZM8 1.5C8.82812 1.5 9.5 2.17188 9.5 3C9.5 3.82812 8.82812 4.5 8 4.5C7.17188 4.5 6.5 3.82812 6.5 3C6.5 2.17188 7.17188 1.5 8 1.5Z" fill="var(--fill-0, #484848)"/>
</svg>
