<svg preserveAspectRatio="none" width="100%" height="100%" overflow="visible" style="display: block;" viewBox="0 0 39 17" fill="none" xmlns="http://www.w3.org/2000/svg">
<g id="Group 859">
<path id="Path 561" d="M38.1642 16.0721C38.1642 16.0721 37.8975 15.7759 37.4547 15.3006C37.1349 14.9774 36.9492 14.5459 36.9347 14.0922V0.0238037H31.593V11.2763C31.544 11.6737 31.3388 12.0355 31.0226 12.2824C30.7063 12.5293 30.3047 12.6412 29.9058 12.5935C29.7317 12.6089 29.5563 12.5864 29.3918 12.5275C29.2273 12.4687 29.0775 12.375 28.9529 12.2528C28.8283 12.1306 28.7318 11.983 28.67 11.82C28.6083 11.657 28.5828 11.4826 28.5953 11.3089V0.0252846H23.3948C23.3948 0.0252846 21.2225 0.0252846 19.7292 0.0252846C16.8816 0.0252846 14.1944 0.462144 13.285 2.82415L12.7486 0.732405C12.6702 0.524479 12.5299 0.345373 12.3465 0.219018C12.1632 0.0926623 11.9456 0.0250747 11.7227 0.0252846H2.42417C2.28896 0.0252846 2.23844 0.0689706 2.30679 0.163747C2.30679 0.163747 2.55939 0.40365 3.01852 0.927882C3.20551 1.16316 3.33738 1.43711 3.40448 1.72972C3.47158 2.02232 3.47221 2.32617 3.40632 2.61905L0 16.2061H4.9583L5.67077 13.2259H10.4567L11.1996 16.2084H17.7277C20.4075 16.2084 22.5865 15.9366 23.6608 14.2699C24.4639 15.7907 26.1942 16.5038 29.2461 16.2417C29.7495 16.2258 30.2423 16.093 30.6852 15.8539C31.1281 15.6148 31.5089 15.276 31.7973 14.8645L32.0083 15.5197C32.0946 15.7276 32.242 15.9045 32.4311 16.0273C32.6202 16.15 32.8421 16.2129 33.0677 16.2076H38.0535C38.1887 16.2076 38.2326 16.1676 38.1642 16.0729M6.41518 10.2752L8.06523 3.63197L9.72195 10.2752H6.41518Z" fill="var(--fill-0, #8C1D40)"/>
<path id="Path 562" d="M38.3207 1.27731C38.1617 1.27731 38.0092 1.21436 37.8968 1.1023C37.7843 0.990237 37.7212 0.838251 37.7212 0.679775C37.7212 0.521299 37.7843 0.369313 37.8968 0.257254C38.0092 0.145194 38.1617 0.0822395 38.3207 0.0822395C38.3994 0.0822334 38.4773 0.0977969 38.5499 0.128027C38.6225 0.158258 38.6883 0.202553 38.7436 0.258345C38.7989 0.314137 38.8425 0.380314 38.872 0.453038C38.9014 0.525763 38.916 0.603587 38.915 0.681996C38.9151 0.760223 38.8995 0.837676 38.8693 0.909883C38.8391 0.982091 38.7949 1.04762 38.7391 1.1027C38.6834 1.15777 38.6173 1.20129 38.5445 1.23075C38.4718 1.26022 38.394 1.27503 38.3155 1.27435M38.3155 5.06425e-05C38.2262 -0.00104674 38.1376 0.0157006 38.0549 0.049304C37.9722 0.0829074 37.897 0.132686 37.8339 0.1957C37.7709 0.258714 37.7211 0.333687 37.6875 0.416193C37.654 0.498698 37.6374 0.587064 37.6387 0.676073C37.6445 0.85159 37.7186 1.01798 37.8452 1.14008C37.9719 1.26219 38.1412 1.33045 38.3174 1.33045C38.4936 1.33045 38.6629 1.26219 38.7895 1.14008C38.9161 1.01798 38.9902 0.85159 38.996 0.676073C38.9969 0.587312 38.98 0.499266 38.9463 0.417106C38.9126 0.334945 38.8627 0.260326 38.7997 0.197628C38.7367 0.13493 38.6617 0.0854174 38.5792 0.0519973C38.4967 0.0185772 38.4083 0.00192298 38.3192 0.0030124M38.0711 0.299189H38.311C38.3931 0.287829 38.4764 0.30708 38.5451 0.353241C38.5722 0.37568 38.5939 0.404043 38.6083 0.436138C38.6227 0.468234 38.6296 0.503205 38.6283 0.538351C38.6301 0.584268 38.6165 0.629479 38.5896 0.666783C38.5626 0.704086 38.524 0.731336 38.4797 0.744193L38.6469 1.04925H38.4856L38.3371 0.770849H38.2108V1.04925H38.0711V0.299189ZM38.2108 0.420621V0.653119H38.2598C38.3081 0.653119 38.3259 0.653119 38.3526 0.653119C38.3692 0.655224 38.386 0.653788 38.402 0.648906C38.4179 0.644024 38.4326 0.635809 38.4452 0.624808C38.4577 0.613807 38.4677 0.600274 38.4745 0.58511C38.4814 0.569946 38.4849 0.553501 38.4849 0.53687C38.4859 0.516141 38.4808 0.495572 38.4702 0.477685C38.4597 0.459797 38.4441 0.445369 38.4255 0.43617C38.3777 0.419927 38.327 0.414365 38.2769 0.41988L38.2108 0.420621Z" fill="var(--fill-0, #8C1D40)"/>
<path id="Path 563" d="M13.1518 3.46381C13.1228 3.61189 13.0871 3.80589 13.0656 3.94361L12.1355 3.08322C12.1176 3.066 12.1066 3.04285 12.1047 3.01814C12.1028 2.99343 12.11 2.96887 12.125 2.94909C12.14 2.92932 12.1617 2.9157 12.1861 2.91081C12.2105 2.90592 12.2358 2.91009 12.2573 2.92254L13.1518 3.46381Z" fill="var(--fill-0, #FFC627)"/>
<path id="Path 564" d="M13.022 4.73237C13.022 4.93155 13.0309 5.20107 13.0525 5.40469L11.2516 4.23257C11.2315 4.21889 11.2171 4.19832 11.2112 4.17476C11.2052 4.1512 11.2082 4.12629 11.2194 4.10475C11.2307 4.08322 11.2495 4.06654 11.2723 4.05789C11.2951 4.04925 11.3202 4.04922 11.343 4.05783L13.022 4.73237Z" fill="var(--fill-0, #FFC627)"/>
<path id="Path 565" d="M13.4389 6.74388C13.3029 6.46913 13.2006 6.17899 13.1343 5.87979L10.6634 5.32445C10.6398 5.31971 10.6154 5.32372 10.5946 5.33574C10.5739 5.34776 10.5583 5.36695 10.5508 5.38968C10.5432 5.4124 10.5444 5.43708 10.5539 5.45904C10.5634 5.481 10.5807 5.49871 10.6025 5.50882L13.4389 6.74388Z" fill="var(--fill-0, #FFC627)"/>
<path id="Path 566" d="M13.5132 6.88104C14.349 8.40265 16.1134 9.00907 17.6595 9.54663C19.1669 10.0649 20.4633 10.5092 20.4633 11.668C20.4635 11.8213 20.4304 11.9728 20.3663 12.1121C20.3022 12.2514 20.2085 12.3753 20.0918 12.4751C19.7621 12.7142 19.3883 12.8861 18.9918 12.981C18.5954 13.0759 18.184 13.0919 17.7813 13.0282C17.3964 12.9757 17.022 12.864 16.6714 12.6972L14.6714 15.1695C14.6558 15.1918 14.6322 15.2072 14.6054 15.2125C14.5787 15.2178 14.5509 15.2126 14.528 15.1979C14.505 15.1833 14.4887 15.1604 14.4823 15.1339C14.4759 15.1075 14.4801 15.0797 14.4938 15.0562L15.8645 12.3085C15.8681 12.3016 15.869 12.2936 15.8673 12.2861C15.8656 12.2785 15.8613 12.2718 15.8551 12.267C15.849 12.2623 15.8414 12.2599 15.8336 12.2601C15.8258 12.2604 15.8184 12.2633 15.8125 12.2685L13.3795 14.3787C13.3598 14.3933 13.3356 14.4005 13.3111 14.399C13.2867 14.3975 13.2636 14.3875 13.2458 14.3707C13.228 14.3539 13.2168 14.3313 13.2141 14.3071C13.2113 14.2828 13.2173 14.2584 13.2309 14.2381L15.1164 11.7413C15.1206 11.7355 15.1227 11.7285 15.1223 11.7214C15.1219 11.7143 15.1191 11.7075 15.1143 11.7022C15.1095 11.697 15.1031 11.6935 15.096 11.6924C15.089 11.6912 15.0817 11.6926 15.0756 11.6961L12.2576 13.4036C12.247 13.4116 12.235 13.4174 12.2221 13.4207C12.2093 13.424 12.1959 13.4248 12.1828 13.423C12.1562 13.4193 12.1323 13.4053 12.1161 13.384C12.0999 13.3627 12.0929 13.3358 12.0966 13.3094C12.1003 13.2829 12.1144 13.259 12.1358 13.2429L14.4894 11.066C14.494 11.0613 14.4968 11.0553 14.4975 11.0488C14.4982 11.0423 14.4966 11.0357 14.4931 11.0302C14.4895 11.0247 14.4842 11.0206 14.478 11.0185C14.4718 11.0164 14.4651 11.0164 14.4589 11.0186L11.3423 12.264C11.3193 12.2736 11.2935 12.2741 11.2701 12.2656C11.2467 12.2571 11.2273 12.2401 11.2159 12.2181C11.2044 12.196 11.2016 12.1705 11.2081 12.1465C11.2146 12.1225 11.2299 12.1018 11.251 12.0886L13.9909 10.3115C13.9962 10.3077 14.0001 10.3021 14.0019 10.2958C14.0037 10.2895 14.0032 10.2827 14.0006 10.2767C13.998 10.2706 13.9934 10.2656 13.9876 10.2626C13.9818 10.2595 13.9751 10.2584 13.9686 10.2597L10.6626 11.0001C10.639 11.0049 10.6146 11.0008 10.5938 10.9888C10.5731 10.9768 10.5575 10.9576 10.55 10.9349C10.5424 10.9122 10.5436 10.8875 10.5531 10.8655C10.5626 10.8436 10.5799 10.8259 10.6016 10.8157L13.6618 9.48295C13.6676 9.48047 13.6724 9.476 13.6752 9.47033C13.678 9.46467 13.6788 9.45819 13.6772 9.45205C13.6757 9.44591 13.6721 9.4405 13.6669 9.4368C13.6618 9.4331 13.6555 9.43135 13.6491 9.43186L10.2465 9.64881C10.2221 9.65079 10.1978 9.6435 10.1785 9.6284C10.1592 9.6133 10.1464 9.59149 10.1425 9.56735C10.1387 9.54321 10.1441 9.51851 10.1577 9.49819C10.1714 9.47787 10.1922 9.46344 10.2161 9.45777L13.4849 8.62182C13.4912 8.62041 13.4967 8.61683 13.5005 8.61172C13.5043 8.6066 13.5062 8.6003 13.5057 8.59394C13.5053 8.58758 13.5026 8.5816 13.4981 8.57707C13.4936 8.57254 13.4876 8.56976 13.4812 8.56924L10.0875 8.25382C10.0642 8.25091 10.0427 8.2396 10.0271 8.22201C10.0115 8.20442 10.0029 8.18177 10.0029 8.1583C10.0029 8.13483 10.0115 8.11218 10.0271 8.09459C10.0427 8.077 10.0642 8.06569 10.0875 8.06278L13.4894 7.74661C13.4953 7.7456 13.5006 7.74256 13.5044 7.73802C13.5082 7.73348 13.5103 7.72774 13.5103 7.72181C13.5103 7.71588 13.5082 7.71014 13.5044 7.7056C13.5006 7.70106 13.4953 7.69802 13.4894 7.69701L10.2109 6.85957C10.187 6.8539 10.1662 6.83947 10.1525 6.81915C10.1389 6.79883 10.1335 6.77413 10.1373 6.74999C10.1412 6.72585 10.154 6.70404 10.1733 6.68894C10.1926 6.67384 10.2169 6.66655 10.2413 6.66853L13.5132 6.88104Z" fill="var(--fill-0, #FFC627)"/>
<path id="Path 567" d="M23.9775 13.711C23.9775 13.711 24.0897 13.4385 24.1476 13.246L24.898 14.2411C24.9123 14.2614 24.9188 14.2861 24.9163 14.3107C24.9139 14.3353 24.9026 14.3583 24.8845 14.3753C24.8665 14.3923 24.8429 14.4022 24.818 14.4033C24.7932 14.4043 24.7688 14.3965 24.7494 14.3811L23.9775 13.711Z" fill="var(--fill-0, #FFC627)"/>
<path id="Path 568" d="M24.3232 12.4668C24.3232 12.4668 24.3856 12.0159 24.3975 11.7686L25.9918 13.2428C26.0113 13.2594 26.0236 13.2828 26.0264 13.3082C26.0291 13.3336 26.0221 13.3591 26.0067 13.3796C25.9913 13.4 25.9687 13.4138 25.9435 13.4183C25.9182 13.4227 25.8922 13.4174 25.8707 13.4034L24.3232 12.4668Z" fill="var(--fill-0, #FFC627)"/>
<path id="Path 569" d="M24.414 11.3162C24.418 11.0286 24.3992 10.7412 24.3575 10.4566L26.8686 12.0855C26.8888 12.0993 26.9032 12.12 26.9091 12.1436C26.9151 12.1672 26.9122 12.1922 26.901 12.2138C26.8898 12.2355 26.871 12.2523 26.8482 12.2611C26.8254 12.2699 26.8002 12.2702 26.7773 12.2618L24.414 11.3162Z" fill="var(--fill-0, #FFC627)"/>
<path id="Path 570" d="M24.3301 10.2979C24.2305 9.781 24.0235 9.29052 23.7225 8.858C23.4214 8.42547 23.033 8.06046 22.582 7.78637C21.7069 7.24041 20.7706 6.79856 19.7923 6.46987C19.1591 6.25612 18.5466 5.98549 17.9625 5.66131C17.7432 5.55925 17.5554 5.40047 17.4186 5.20148C17.2817 5.00249 17.201 4.77059 17.1846 4.52992C17.1799 4.38303 17.2057 4.23675 17.2604 4.10027C17.3152 3.9638 17.3976 3.84008 17.5026 3.73691C18.0581 3.3314 18.7465 3.14949 19.4305 3.22748C20.1126 3.26153 20.784 3.41023 21.4164 3.6673L23.4542 1.15573C23.4708 1.1359 23.494 1.12278 23.5196 1.11883C23.5452 1.11488 23.5714 1.12038 23.5932 1.13429C23.615 1.1482 23.6309 1.16957 23.638 1.19438C23.6451 1.21918 23.6429 1.24573 23.6318 1.26902L22.2455 4.04567C22.2427 4.0512 22.242 4.0575 22.2434 4.0635C22.2448 4.0695 22.2483 4.07483 22.2532 4.07859C22.2581 4.08234 22.2641 4.08428 22.2703 4.08409C22.2765 4.08389 22.2824 4.08157 22.2871 4.07751L24.7484 1.94208C24.7679 1.92668 24.7922 1.91879 24.8171 1.91986C24.8419 1.92093 24.8655 1.93088 24.8835 1.94788C24.9016 1.96489 24.9129 1.98781 24.9154 2.01245C24.9178 2.03709 24.9113 2.06179 24.897 2.08202L22.9951 4.59952C22.9917 4.60446 22.99 4.61041 22.9904 4.61641C22.9908 4.62241 22.9932 4.6281 22.9972 4.63256C23.0013 4.63702 23.0067 4.63998 23.0127 4.64097C23.0186 4.64197 23.0247 4.64092 23.03 4.63802L25.8606 2.92316C25.8823 2.91045 25.9079 2.90614 25.9326 2.91104C25.9572 2.91595 25.9793 2.92973 25.9944 2.94976C26.0095 2.9698 26.0168 2.99468 26.0147 3.01968C26.0126 3.04468 26.0014 3.06804 25.9831 3.08532L23.6288 5.26591C23.6246 5.27023 23.6219 5.27585 23.6213 5.28186C23.6207 5.28786 23.6222 5.29389 23.6255 5.29896C23.6287 5.30404 23.6336 5.30785 23.6394 5.30978C23.6451 5.31172 23.6513 5.31165 23.657 5.3096L26.7773 4.06048C26.8004 4.05157 26.8259 4.05145 26.849 4.06012C26.8721 4.06879 26.8912 4.08565 26.9026 4.10748C26.914 4.1293 26.9169 4.15455 26.9108 4.1784C26.9047 4.20224 26.89 4.223 26.8695 4.2367L24.1229 6.01894C24.1178 6.02241 24.1141 6.0275 24.1124 6.03334C24.1107 6.03919 24.111 6.04545 24.1134 6.05108C24.1157 6.05671 24.1199 6.06136 24.1253 6.06427C24.1307 6.06718 24.1369 6.06817 24.1429 6.06707L27.4608 5.32515C27.4844 5.3204 27.5088 5.32442 27.5296 5.33644C27.5503 5.34846 27.5659 5.36765 27.5734 5.39037C27.5809 5.41309 27.5798 5.43777 27.5703 5.45973C27.5608 5.48169 27.5435 5.49941 27.5217 5.50952L24.4616 6.84231C24.4558 6.84479 24.451 6.84926 24.4482 6.85492C24.4454 6.86058 24.4446 6.86707 24.4462 6.87321C24.4477 6.87935 24.4513 6.88476 24.4565 6.88846C24.4616 6.89216 24.4679 6.89391 24.4743 6.8934L27.8717 6.67645C27.8957 6.67547 27.9192 6.68332 27.9378 6.69851C27.9564 6.71369 27.9688 6.73516 27.9725 6.75883C27.9763 6.7825 27.9712 6.80672 27.9582 6.82688C27.9452 6.84705 27.9253 6.86177 27.9021 6.86823L24.6332 7.7027C24.627 7.70411 24.6215 7.70769 24.6177 7.7128C24.6139 7.71792 24.612 7.72422 24.6124 7.73058C24.6129 7.73694 24.6156 7.74292 24.6201 7.74745C24.6246 7.75198 24.6306 7.75476 24.637 7.75527L28.0292 8.06478C28.0548 8.06478 28.0793 8.07492 28.0975 8.09297C28.1156 8.11102 28.1258 8.13551 28.1258 8.16104C28.1258 8.18657 28.1156 8.21105 28.0975 8.2291C28.0793 8.24715 28.0548 8.25729 28.0292 8.25729L24.6399 8.57198C24.6336 8.5725 24.6276 8.57527 24.6231 8.5798C24.6186 8.58433 24.6159 8.59032 24.6154 8.59668C24.615 8.60303 24.6168 8.60934 24.6206 8.61445C24.6245 8.61957 24.63 8.62315 24.6362 8.62455L27.9051 9.45903C27.9283 9.46549 27.9482 9.4802 27.9612 9.50037C27.9742 9.52054 27.9793 9.54476 27.9755 9.56843C27.9718 9.5921 27.9594 9.61356 27.9408 9.62875C27.9222 9.64394 27.8987 9.65178 27.8746 9.6508L24.4772 9.43385C24.4709 9.43335 24.4646 9.4351 24.4595 9.4388C24.4543 9.4425 24.4506 9.4479 24.4491 9.45405C24.4476 9.46019 24.4483 9.46667 24.4512 9.47233C24.454 9.47799 24.4588 9.48246 24.4646 9.48494L27.5247 10.8177C27.5465 10.8278 27.5638 10.8456 27.5733 10.8675C27.5828 10.8895 27.5839 10.9142 27.5764 10.9369C27.5689 10.9596 27.5533 10.9788 27.5325 10.9908C27.5118 11.0028 27.4873 11.0069 27.4638 11.0021L24.3301 10.2979Z" fill="var(--fill-0, #FFC627)"/>
</g>
</svg>
