<svg preserveAspectRatio="none" width="100%" height="100%" overflow="visible" style="display: block;" viewBox="0 0 16 16" fill="none" xmlns="http://www.w3.org/2000/svg">
<path id="hive" d="M8.13775 7.96289L4.10948 0.0390857C4.10343 0.0271946 4.09475 0.0173265 4.08432 0.0104678C4.07388 0.00360913 4.06206 0 4.05002 0C4.03798 0 4.02615 0.00360913 4.01572 0.0104678C4.00528 0.0173265 3.9966 0.0271946 3.99055 0.0390857L0.00921745 7.96289C0.00317899 7.97485 0 7.98841 0 8.00221C0 8.01601 0.00317899 8.02957 0.00921745 8.04152L4.03428 15.9653C4.04034 15.9772 4.04902 15.9871 4.05945 15.9939C4.06989 16.0008 4.08171 16.0044 4.09375 16.0044C4.10579 16.0044 4.11762 16.0008 4.12805 15.9939C4.13849 15.9871 4.14716 15.9772 4.15322 15.9653L8.13775 8.04152C8.14379 8.02957 8.14697 8.01601 8.14697 8.00221C8.14697 7.98841 8.14379 7.97485 8.13775 7.96289ZM9.35962 7.04495C9.36566 7.05678 9.3743 7.06661 9.38468 7.07345C9.39506 7.08029 9.40683 7.08392 9.41882 7.08396H11.4988C11.5108 7.08385 11.5226 7.08016 11.533 7.07324C11.5433 7.06633 11.5519 7.05643 11.5579 7.04454C11.5639 7.03264 11.5671 7.01916 11.5671 7.00544C11.5671 6.99172 11.564 6.97824 11.558 6.96632L8.09722 0.0409133C8.09118 0.029081 8.08254 0.0192586 8.07216 0.0124163C8.06177 0.005574 8.05 0.00194969 8.03802 0.0019043H5.95802C5.94601 0.0020109 5.93424 0.00570682 5.92387 0.0126232C5.9135 0.0195396 5.9049 0.0294355 5.89891 0.0413295C5.89293 0.0532235 5.88977 0.0667014 5.88975 0.0804222C5.88974 0.0941431 5.89286 0.10763 5.89882 0.119543L9.35962 7.04495ZM15.9911 7.96289L12.0284 0.0390857C12.0222 0.0275932 12.0135 0.0181319 12.0031 0.0116188C11.9927 0.00510563 11.9811 0.00176032 11.9692 0.0019043H9.88922C9.87721 0.0020109 9.86544 0.00570682 9.85507 0.0126232C9.8447 0.0195396 9.8361 0.0294355 9.83011 0.0413295C9.82413 0.0532235 9.82097 0.0667014 9.82095 0.0804222C9.82094 0.0941431 9.82406 0.10763 9.83002 0.119543L13.774 8.0019L9.82842 15.8843C9.82246 15.8962 9.81934 15.9097 9.81935 15.9234C9.81937 15.9371 9.82253 15.9506 9.82851 15.9625C9.8345 15.9744 9.8431 15.9843 9.85347 15.9912C9.86384 15.9981 9.87561 16.0018 9.88762 16.0019H11.9676C11.9796 16.0019 11.9914 15.9982 12.0018 15.9914C12.0121 15.9845 12.0208 15.9747 12.0268 15.9629L15.9895 8.03909C15.9955 8.02713 15.9987 8.01357 15.9987 7.99977C15.9987 7.98597 15.9955 7.97241 15.9895 7.96046L15.9911 7.96289ZM11.438 9.03444H9.35802C9.34603 9.03448 9.33426 9.03811 9.32388 9.04495C9.3135 9.05179 9.30486 9.06161 9.29882 9.07345L5.90042 15.8806C5.89446 15.8925 5.89134 15.906 5.89135 15.9197C5.89137 15.9334 5.89453 15.9469 5.90051 15.9588C5.9065 15.9707 5.9151 15.9806 5.92547 15.9875C5.93584 15.9944 5.94761 15.9981 5.95962 15.9982H8.03962C8.0516 15.9982 8.06337 15.9946 8.07376 15.9877C8.08414 15.9809 8.09278 15.9711 8.09882 15.9592L11.4988 9.15208C11.5048 9.14016 11.5079 9.12668 11.5079 9.11296C11.5079 9.09923 11.5047 9.08576 11.4987 9.07386C11.4927 9.06197 11.4841 9.05207 11.4738 9.04516C11.4634 9.03824 11.4516 9.03454 11.4396 9.03444H11.438Z" fill="var(--fill-0, #FF7F32)"/>
</svg>
