<svg preserveAspectRatio="none" width="100%" height="100%" overflow="visible" style="display: block;" viewBox="0 0 7 7" fill="none" xmlns="http://www.w3.org/2000/svg">
<path id="Star 3" d="M2.86215 1.53451C3.18431 0.663888 4.41569 0.663888 4.73785 1.53451L4.93686 2.07232C5.03815 2.34604 5.25396 2.56185 5.52768 2.66314L6.06549 2.86215C6.93611 3.18431 6.93611 4.41569 6.06549 4.73785L5.52768 4.93686C5.25396 5.03815 5.03815 5.25396 4.93686 5.52768L4.73785 6.06549C4.41569 6.93611 3.18431 6.93611 2.86215 6.06549L2.66314 5.52768C2.56185 5.25396 2.34604 5.03815 2.07232 4.93686L1.53451 4.73785C0.663888 4.41569 0.663888 3.18431 1.53451 2.86215L2.07232 2.66314C2.34604 2.56185 2.56185 2.34604 2.66314 2.07232L2.86215 1.53451Z" fill="var(--fill-0, #FFC627)"/>
</svg>
