<svg preserveAspectRatio="none" width="100%" height="100%" overflow="visible" style="display: block;" viewBox="0 0 30 27" fill="none" xmlns="http://www.w3.org/2000/svg">
<path id="hive" d="M15.2583 13.0641L7.70528 0.0641251C7.69393 0.0446162 7.67766 0.0284263 7.65809 0.0171738C7.63853 0.00592123 7.61635 0 7.59378 0C7.57121 0 7.54904 0.00592123 7.52947 0.0171738C7.5099 0.0284263 7.49363 0.0446162 7.48228 0.0641251L0.0172827 13.0641C0.00596061 13.0837 0 13.106 0 13.1286C0 13.1513 0.00596061 13.1735 0.0172827 13.1931L7.56428 26.1931C7.57563 26.2126 7.5919 26.2288 7.61147 26.2401C7.63104 26.2513 7.65321 26.2572 7.67578 26.2572C7.69835 26.2572 7.72053 26.2513 7.7401 26.2401C7.75966 26.2288 7.77593 26.2126 7.78728 26.1931L15.2583 13.1931C15.2696 13.1735 15.2756 13.1513 15.2756 13.1286C15.2756 13.106 15.2696 13.0837 15.2583 13.0641ZM17.5493 11.5581C17.5606 11.5775 17.5768 11.5937 17.5963 11.6049C17.6157 11.6161 17.6378 11.622 17.6603 11.6221H21.5603C21.5828 11.6219 21.6049 11.6159 21.6243 11.6045C21.6437 11.5932 21.6599 11.577 21.6711 11.5574C21.6823 11.5379 21.6882 11.5158 21.6883 11.4933C21.6883 11.4708 21.6825 11.4487 21.6713 11.4291L15.1823 0.0671234C15.171 0.0477109 15.1548 0.0315961 15.1353 0.0203705C15.1158 0.00914484 15.0938 0.00319872 15.0713 0.00312424H11.1713C11.1488 0.00329913 11.1267 0.00936275 11.1073 0.02071C11.0878 0.0320572 11.0717 0.0482926 11.0605 0.0678062C11.0492 0.0873199 11.0433 0.109432 11.0433 0.131943C11.0433 0.154453 11.0491 0.17658 11.0603 0.196125L17.5493 11.5581ZM29.9833 13.0641L22.5533 0.0641251C22.5416 0.0452701 22.5252 0.0297477 22.5058 0.019062C22.4863 0.00837642 22.4645 0.00288802 22.4423 0.00312424H18.5423C18.5198 0.00329913 18.4977 0.00936275 18.4783 0.02071C18.4588 0.0320572 18.4427 0.0482926 18.4315 0.0678062C18.4202 0.0873199 18.4143 0.109432 18.4143 0.131943C18.4143 0.154453 18.4201 0.17658 18.4313 0.196125L25.8263 13.1281L18.4283 26.0601C18.4171 26.0797 18.4113 26.1018 18.4113 26.1243C18.4113 26.1468 18.4172 26.1689 18.4285 26.1884C18.4397 26.208 18.4558 26.2242 18.4753 26.2355C18.4947 26.2469 18.5168 26.2529 18.5393 26.2531H22.4393C22.4618 26.253 22.4838 26.2471 22.5033 26.2359C22.5228 26.2247 22.539 26.2085 22.5503 26.1891L29.9803 13.1891C29.9916 13.1695 29.9976 13.1473 29.9976 13.1246C29.9976 13.102 29.9916 13.0797 29.9803 13.0601L29.9833 13.0641ZM21.4463 14.8221H17.5463C17.5238 14.8222 17.5017 14.8281 17.4823 14.8394C17.4628 14.8506 17.4466 14.8667 17.4353 14.8861L11.0633 26.0541C11.0521 26.0737 11.0463 26.0958 11.0463 26.1183C11.0463 26.1408 11.0522 26.1629 11.0635 26.1824C11.0747 26.202 11.0908 26.2182 11.1103 26.2295C11.1297 26.2409 11.1518 26.2469 11.1743 26.2471H15.0743C15.0968 26.247 15.1188 26.2411 15.1383 26.2299C15.1578 26.2187 15.174 26.2025 15.1853 26.1831L21.5603 15.0151C21.5715 14.9956 21.5773 14.9735 21.5773 14.9509C21.5772 14.9284 21.5713 14.9063 21.5601 14.8868C21.5489 14.8673 21.5327 14.8511 21.5133 14.8397C21.4939 14.8284 21.4718 14.8223 21.4493 14.8221H21.4463Z" fill="var(--fill-0, #FF7F32)"/>
</svg>
