<svg preserveAspectRatio="none" width="100%" height="100%" overflow="visible" style="display: block;" viewBox="0 0 26 26" fill="none" xmlns="http://www.w3.org/2000/svg">
<path id="Star 1" d="M12.5312 1.70801C12.6924 1.27279 13.3076 1.27279 13.4688 1.70801L16.1523 8.96094C16.3043 9.37152 16.6285 9.69573 17.0391 9.84766L24.292 12.5312C24.7272 12.6924 24.7272 13.3076 24.292 13.4688L17.0391 16.1523C16.6285 16.3043 16.3043 16.6285 16.1523 17.0391L13.4688 24.292C13.3076 24.7272 12.6924 24.7272 12.5312 24.292L9.84766 17.0391C9.69573 16.6285 9.37152 16.3043 8.96094 16.1523L1.70801 13.4688C1.27279 13.3076 1.27279 12.6924 1.70801 12.5312L8.96094 9.84766C9.37152 9.69573 9.69573 9.37152 9.84766 8.96094L12.5312 1.70801Z" fill="var(--fill-0, white)" stroke="var(--stroke-0, #FFC627)"/>
</svg>
