<svg preserveAspectRatio="none" width="100%" height="100%" overflow="visible" style="display: block;" viewBox="0 0 48 48" fill="none" xmlns="http://www.w3.org/2000/svg">
<g id="Frame 97">
<rect width="48" height="48" rx="24" fill="var(--fill-0, #FFC627)"/>
<path id="Vector" d="M35.6779 12.8953C35.6477 12.755 35.5777 12.6264 35.4763 12.525C35.3748 12.4235 35.2462 12.3536 35.1058 12.3234C33.5961 12 32.415 12 31.2381 12C26.3993 12 23.4969 14.5875 21.3312 17.9999H16.4455C16.0283 18.0003 15.6193 18.1166 15.2644 18.3358C14.9094 18.5551 14.6224 18.8687 14.4354 19.2416L12.1183 23.8728C12.0327 24.0444 11.9924 24.2349 12.0012 24.4264C12.01 24.6179 12.0676 24.804 12.1685 24.967C12.2695 25.13 12.4104 25.2645 12.578 25.3578C12.7455 25.451 12.9341 25.4999 13.1259 25.4998H17.9914L16.9378 26.5531C16.6565 26.8344 16.4985 27.2158 16.4985 27.6136C16.4985 28.0114 16.6565 28.3928 16.9378 28.6741L19.3244 31.0605C19.4637 31.1998 19.6292 31.3104 19.8112 31.3858C19.9933 31.4612 20.1884 31.5 20.3855 31.5C20.5825 31.5 20.7777 31.4612 20.9597 31.3858C21.1418 31.3104 21.3072 31.1998 21.4465 31.0605L22.5001 30.0072V34.8747C22.5001 35.0663 22.549 35.2548 22.6422 35.4222C22.7355 35.5897 22.87 35.7305 23.0329 35.8314C23.1959 35.9323 23.382 35.9899 23.5734 35.9988C23.7649 36.0076 23.9555 35.9674 24.1271 35.882L28.7549 33.5669C29.1285 33.3803 29.4427 33.0933 29.6622 32.7381C29.8817 32.3829 29.9978 31.9735 29.9974 31.556V26.6618C33.401 24.4915 35.999 21.5806 35.999 16.7671C36.0037 15.5859 36.0037 14.4047 35.6779 12.8953ZM30.0021 19.8749C29.6312 19.8749 29.2686 19.7649 28.9602 19.5589C28.6517 19.3529 28.4113 19.06 28.2694 18.7174C28.1274 18.3748 28.0903 17.9978 28.1627 17.6341C28.235 17.2704 28.4137 16.9363 28.6759 16.6741C28.9382 16.4119 29.2724 16.2333 29.6362 16.161C30 16.0886 30.3771 16.1258 30.7199 16.2677C31.0626 16.4096 31.3555 16.6499 31.5616 16.9582C31.7676 17.2666 31.8776 17.6291 31.8776 17.9999C31.8776 18.4972 31.68 18.9741 31.3283 19.3257C30.9766 19.6773 30.4995 19.8749 30.0021 19.8749Z" fill="var(--fill-0, #484848)"/>
</g>
</svg>
