<svg preserveAspectRatio="none" width="100%" height="100%" overflow="visible" style="display: block;" viewBox="0 0 18 18" fill="none" xmlns="http://www.w3.org/2000/svg">
<path id="Vector" d="M17.0601 11.9012C17.94 12.7811 17.94 14.2101 17.0601 15.09L15.1101 17.0399C14.2302 17.9199 12.8012 17.9199 11.9213 17.0399L9.62641 14.7451L10.8231 13.5484L13.118 15.8432C13.3362 16.0333 13.6952 16.0333 13.9134 15.8432L15.8633 13.8933C16.0534 13.6751 16.0534 13.3161 15.8633 13.0979L15.2861 12.5206L14.4766 13.3302C14.2584 13.5519 13.8993 13.5519 13.6811 13.3302C13.4594 13.1119 13.4594 12.7529 13.6811 12.5347L14.4907 11.7252L13.5685 10.803L14.7652 9.60631L17.0601 11.9012ZM3.25643 8.37441L0.961226 6.07955C0.0816494 5.19962 0.0816494 3.77062 0.961226 2.89245L2.9122 0.941471C3.79072 0.0616126 5.21973 0.0616126 6.09966 0.941471L8.39451 3.23632L7.19781 4.43232L6.27564 3.51016L5.46611 4.31969C5.24789 4.54144 4.88888 4.54144 4.67065 4.31969C4.44891 4.10147 4.44891 3.74246 4.67065 3.52424L5.48019 2.7133L4.90296 2.13606C4.68473 1.91608 4.32572 1.91608 4.1075 2.13606L2.15582 4.08739C1.93619 4.30561 1.93619 4.66463 2.15582 4.88285L4.45243 7.1777L3.25643 8.37441ZM2.06149 11.3662L12.766 0.659894C13.6459 -0.219965 15.0749 -0.219965 15.9549 0.659894L17.3416 2.04772C17.4507 2.15753 17.5458 2.27615 17.6302 2.4011C18.2075 3.27539 18.1124 4.464 17.3416 5.23482L6.63465 15.9383C6.5889 15.984 6.54314 15.9981 6.49387 16.072C6.15597 16.3712 5.75473 16.5613 5.31828 16.7196L1.08301 17.9656C0.786648 18.0536 0.466002 17.9727 0.247428 17.7228C0.0288467 17.5362 -0.0528741 17.2159 0.0343444 16.9168L1.28011 12.6825C1.42653 12.1863 1.69509 11.7322 2.06149 11.3662ZM2.90094 13.1577L2.09211 15.9101L4.84312 15.1006C5.0367 15.0337 5.27253 14.9105 5.44147 14.7451L13.4805 6.70254L11.2666 4.48864L3.25608 12.5593C3.23531 12.5805 3.21525 12.6016 3.19589 12.6262C3.06003 12.7776 2.95902 12.9606 2.90094 13.1577Z" fill="var(--fill-0, #484848)"/>
</svg>
