<svg preserveAspectRatio="none" width="100%" height="100%" overflow="visible" style="display: block;" viewBox="0 0 18 18" fill="none" xmlns="http://www.w3.org/2000/svg">
<path id="Star 2" d="M8.53125 1.70801C8.69236 1.27279 9.30764 1.2728 9.46875 1.70801L11.0723 6.04102C11.2242 6.45159 11.5484 6.77581 11.959 6.92773L16.292 8.53125C16.7272 8.69236 16.7272 9.30764 16.292 9.46875L11.959 11.0723C11.5484 11.2242 11.2242 11.5484 11.0723 11.959L9.46875 16.292C9.30764 16.7272 8.69236 16.7272 8.53125 16.292L6.92773 11.959C6.77581 11.5484 6.45159 11.2242 6.04102 11.0723L1.70801 9.46875C1.27279 9.30764 1.2728 8.69236 1.70801 8.53125L6.04102 6.92773C6.45159 6.77581 6.77581 6.45159 6.92773 6.04102L8.53125 1.70801Z" fill="var(--fill-0, white)" stroke="var(--stroke-0, #FFC627)"/>
</svg>
