<svg preserveAspectRatio="none" width="100%" height="100%" overflow="visible" style="display: block;" viewBox="0 0 23 18" fill="none" xmlns="http://www.w3.org/2000/svg">
<path id="Vector" d="M5.40859 3.2614C6.99851 2.04853 9.03706 1.12498 11.4847 1.12498C14.3846 1.12498 16.7067 2.42012 18.3971 3.95855C20.0768 5.48431 21.2001 7.28078 21.7313 8.56748C21.8497 8.84521 21.8497 9.15458 21.7313 9.43231C21.2504 10.5678 20.2849 12.1674 18.8637 13.5948L22.6393 16.4916C23.0126 16.7799 23.0808 17.3107 22.7865 17.6764C22.4922 18.042 21.9502 18.1088 21.577 17.8205L0.330037 1.50783C-0.0443663 1.22025 -0.110009 0.690104 0.183462 0.323287C0.47697 -0.043459 1.01819 -0.107759 1.39288 0.179711L5.40859 3.2614ZM6.81189 4.34174L8.46282 5.60736C9.27034 4.9183 10.3291 4.49995 11.4847 4.49995C14.0222 4.49995 16.0786 6.51438 16.0786 8.9999C16.0786 9.7452 15.8956 10.4448 15.569 11.0635L17.4999 12.5471C18.7022 11.3483 19.5923 9.95262 20.0481 8.9999C19.5277 7.91358 18.6053 6.4511 17.2235 5.19252C15.7485 3.85308 13.8248 2.78082 11.4847 2.78082C9.67231 2.78082 8.0788 3.43578 6.81189 4.34174ZM14.1729 9.99129C14.2913 9.68192 14.3559 9.34794 14.3559 8.96826C14.3559 7.44601 13.0711 6.15579 11.4847 6.15579C11.4596 6.15579 11.4381 6.18743 11.3807 6.18743C11.4596 6.36672 11.4847 6.55656 11.4847 6.71828C11.4847 7.10851 11.3986 7.44601 11.2479 7.74483L14.1729 9.99129ZM14.5103 14.5721L16.014 15.7322C14.7112 16.4213 13.2003 16.8748 11.4847 16.8748C8.58484 16.8748 6.26277 15.5811 4.57236 14.0413C2.89343 12.4838 1.7708 10.6874 1.23676 9.43231C1.11904 9.15458 1.11904 8.84521 1.23676 8.56748C1.57915 7.76241 2.16379 6.7218 2.98208 5.67767L4.33549 6.7218C3.66435 7.54093 3.22147 8.35303 2.92322 8.96826C3.41025 10.0546 4.3642 11.5487 5.74596 12.8073C7.22103 14.1467 9.14473 15.1873 11.4847 15.1873C12.5866 15.1873 13.5951 14.9553 14.5103 14.5721ZM6.89084 8.96826C6.89084 8.89795 6.89443 8.79951 6.90161 8.70107L8.91503 10.255C9.29187 10.9968 9.99531 11.5522 10.8387 11.7104L12.8557 13.2959C12.4215 13.3979 11.9621 13.4999 11.4524 13.4999C8.94733 13.4999 6.85854 11.4854 6.85854 8.96826H6.89084Z" fill="var(--fill-0, #484848)"/>
</svg>
