<svg preserveAspectRatio="none" width="100%" height="100%" overflow="visible" style="display: block;" viewBox="0 0 11 11" fill="none" xmlns="http://www.w3.org/2000/svg">
<path id="Star 2" d="M4.91929 1.53451C5.24145 0.663888 6.47284 0.663888 6.79499 1.53451L7.54962 3.57385C7.65091 3.84757 7.86672 4.06338 8.14044 4.16467L10.1798 4.91929C11.0504 5.24145 11.0504 6.47284 10.1798 6.79499L8.14044 7.54962C7.86672 7.65091 7.65091 7.86672 7.54962 8.14044L6.79499 10.1798C6.47284 11.0504 5.24145 11.0504 4.91929 10.1798L4.16467 8.14044C4.06338 7.86672 3.84757 7.65091 3.57385 7.54962L1.53451 6.79499C0.663888 6.47284 0.663888 5.24145 1.53451 4.91929L3.57385 4.16467C3.84757 4.06338 4.06338 3.84757 4.16467 3.57385L4.91929 1.53451Z" fill="var(--fill-0, #FFC627)"/>
</svg>
