<svg preserveAspectRatio="none" width="100%" height="100%" overflow="visible" style="display: block;" viewBox="0 0 30 30" fill="none" xmlns="http://www.w3.org/2000/svg">
<path id="circle-plus" d="M14.063 20.625V15.938H9.37501C9.13167 15.9301 8.90095 15.8278 8.73162 15.6528C8.5623 15.4779 8.46763 15.244 8.46763 15.0005C8.46763 14.757 8.5623 14.5231 8.73162 14.3482C8.90095 14.1732 9.13167 14.0709 9.37501 14.063H14.063V9.375C14.071 9.13166 14.1732 8.90094 14.3482 8.73162C14.5231 8.56229 14.757 8.46762 15.0005 8.46762C15.244 8.46762 15.4779 8.56229 15.6529 8.73162C15.8278 8.90094 15.9301 9.13166 15.938 9.375V14.063H20.626C20.8693 14.0709 21.1001 14.1732 21.2694 14.3482C21.4387 14.5231 21.5334 14.757 21.5334 15.0005C21.5334 15.244 21.4387 15.4779 21.2694 15.6528C21.1001 15.8278 20.8693 15.9301 20.626 15.938H15.938V20.626C15.9301 20.8693 15.8278 21.1001 15.6529 21.2694C15.4779 21.4387 15.244 21.5334 15.0005 21.5334C14.757 21.5334 14.5231 21.4387 14.3482 21.2694C14.1732 21.1001 14.071 20.8683 14.063 20.625ZM30 15C30 17.9667 29.1203 20.8668 27.4721 23.3336C25.8238 25.8003 23.4812 27.7229 20.7403 28.8582C17.9994 29.9935 14.9834 30.2906 12.0737 29.7118C9.16394 29.133 6.49119 27.7044 4.3934 25.6066C2.29562 23.5088 0.867006 20.8361 0.288228 17.9264C-0.290551 15.0166 0.00649929 12.0006 1.14181 9.25975C2.27713 6.51886 4.19972 4.17618 6.66645 2.52796C9.13319 0.879735 12.0333 0 15 0C18.9783 0 22.7936 1.58035 25.6066 4.3934C28.4197 7.20644 30 11.0218 30 15ZM15 1.875C12.4041 1.875 9.86654 2.64477 7.70815 4.08696C5.54975 5.52915 3.86749 7.579 2.87409 9.97728C1.88069 12.3756 1.62077 15.0146 2.1272 17.5606C2.63363 20.1066 3.88367 22.4452 5.71923 24.2808C7.55479 26.1163 9.89345 27.3664 12.4394 27.8728C14.9854 28.3792 17.6244 28.1193 20.0227 27.1259C22.421 26.1325 24.4709 24.4503 25.913 22.2919C27.3552 20.1335 28.125 17.5959 28.125 15C28.1247 11.5191 26.7418 8.18087 24.2805 5.71952C21.8191 3.25816 18.4809 1.87527 15 1.875Z" fill="var(--fill-0, #484848)"/>
</svg>
