<svg preserveAspectRatio="none" width="100%" height="100%" overflow="visible" style="display: block;" viewBox="0 0 16 16" fill="none" xmlns="http://www.w3.org/2000/svg">
<path id="files-medical" d="M10.6667 5.91542C10.6654 5.80476 10.6143 5.69901 10.5244 5.62115C10.4345 5.54329 10.3131 5.49962 10.1867 5.49962H9.2368C9.11079 5.50048 8.99021 5.54466 8.90111 5.62262C8.812 5.70059 8.76151 5.80609 8.76053 5.91635V7.16654H7.33227C7.26876 7.16426 7.2054 7.1736 7.14625 7.19396C7.08709 7.21431 7.03344 7.24524 6.98872 7.28477C6.944 7.32429 6.9092 7.37154 6.88653 7.4235C6.86386 7.47546 6.85382 7.53099 6.85707 7.58654V8.42C6.85451 8.47532 6.86508 8.53051 6.88811 8.58208C6.91114 8.63365 6.94613 8.68049 6.99088 8.71964C7.03562 8.7588 7.08915 8.78941 7.14809 8.80956C7.20703 8.82971 7.27011 8.83896 7.33333 8.83673H8.76213V10.0869C8.76311 10.1972 8.8136 10.3027 8.90271 10.3806C8.99181 10.4586 9.11239 10.5028 9.2384 10.5036H10.1909C10.3174 10.5027 10.4383 10.458 10.5274 10.3795C10.6165 10.3009 10.6665 10.1948 10.6667 10.0841V8.83439H12.0955C12.2205 8.82922 12.3388 8.78322 12.427 8.70546C12.5152 8.62771 12.5668 8.52385 12.5717 8.4144V7.5842C12.5708 7.47394 12.5203 7.36844 12.4312 7.29048C12.3421 7.21251 12.2215 7.16833 12.0955 7.16747H10.6667V5.91542ZM15.3312 2.91804L12.6645 0.584729C12.2355 0.211315 11.6553 0.00117978 11.0501 2.17781e-07H5.7168C5.41648 -0.000122377 5.11906 0.0515149 4.84155 0.151964C4.56403 0.252413 4.31184 0.399706 4.09938 0.585434C3.88692 0.771162 3.71835 0.991688 3.60329 1.23442C3.48823 1.47715 3.42894 1.73734 3.4288 2.00012V10.9997C3.4288 11.5302 3.66963 12.0389 4.09832 12.414C4.527 12.7891 5.10842 12.9998 5.71467 12.9998H13.7147C14.3202 12.998 14.9004 12.7866 15.3285 12.4119C15.7566 12.0372 15.998 11.5296 16 10.9997V4.3311C15.9999 3.80132 15.7598 3.29317 15.3323 2.91804H15.3312ZM14.2859 10.9997C14.2859 11.0653 14.2711 11.1303 14.2424 11.191C14.2137 11.2516 14.1716 11.3067 14.1186 11.3531C14.0655 11.3995 14.0026 11.4363 13.9333 11.4615C13.864 11.4866 13.7897 11.4995 13.7147 11.4995H5.71467C5.63966 11.4995 5.56538 11.4866 5.49608 11.4615C5.42678 11.4363 5.36381 11.3995 5.31077 11.3531C5.25773 11.3067 5.21565 11.2516 5.18695 11.191C5.15824 11.1303 5.14347 11.0653 5.14347 10.9997V2.00385C5.14347 1.8713 5.20365 1.74417 5.31077 1.65044C5.41789 1.55671 5.56318 1.50405 5.71467 1.50405H10.2859V3.99977C10.2859 4.265 10.4063 4.51937 10.6206 4.70691C10.835 4.89446 11.1257 4.99983 11.4288 4.99983H14.2853L14.2859 10.9997ZM11.7141 16H4.28587C3.14949 15.9991 2.05993 15.6038 1.25639 14.9007C0.452852 14.1976 0.000988586 13.2442 0 12.2499L0 3.7501C0 3.55121 0.0902978 3.36046 0.251029 3.21982C0.41176 3.07919 0.629758 3.00018 0.857067 3.00018C1.08437 3.00018 1.30237 3.07919 1.4631 3.21982C1.62384 3.36046 1.71413 3.55121 1.71413 3.7501V12.2499C1.71498 12.8464 1.98615 13.4182 2.46816 13.8399C2.95017 14.2617 3.60367 14.4989 4.28533 14.4997H11.7141C11.9414 14.4997 12.1594 14.5787 12.3202 14.7193C12.4809 14.86 12.5712 15.0507 12.5712 15.2496C12.5712 15.4485 12.4809 15.6392 12.3202 15.7799C12.1594 15.9205 11.9414 16 11.7141 16Z" fill="var(--fill-0, #FFC627)"/>
</svg>
