<svg preserveAspectRatio="none" width="100%" height="100%" overflow="visible" style="display: block;" viewBox="0 0 14 8" fill="none" xmlns="http://www.w3.org/2000/svg">
<path id="angle-down-solid" d="M6.17769 7.66522C6.39667 7.87958 6.69354 8 7.00306 8C7.31259 8 7.60945 7.87958 7.82844 7.66522L13.6581 1.95261C13.877 1.7381 14 1.44717 14 1.14381C14 0.840453 13.877 0.549521 13.6581 0.335014C13.4392 0.120507 13.1423 0 12.8327 0C12.5232 0 12.2263 0.120507 12.0074 0.335014L7.00087 5.24096L1.99263 0.339305C1.77373 0.124797 1.47683 0.00427727 1.16726 0.00427728C0.857682 0.00427728 0.560785 0.124797 0.341881 0.339305C0.122978 0.553812 6.10248e-09 0.844743 0 1.1481C-6.10249e-09 1.45146 0.122978 1.74239 0.341881 1.9569L6.17156 7.66951L6.17769 7.66522Z" fill="var(--fill-0, #484848)"/>
</svg>
