<svg preserveAspectRatio="none" width="100%" height="100%" overflow="visible" style="display: block;" viewBox="0 0 28 28" fill="none" xmlns="http://www.w3.org/2000/svg">
<path id="circle-plus" d="M13.1255 19.25V14.8755H8.75001C8.52289 14.868 8.30755 14.7726 8.14952 14.6093C7.99148 14.446 7.90312 14.2277 7.90312 14.0005C7.90312 13.7732 7.99148 13.5549 8.14952 13.3916C8.30755 13.2283 8.52289 13.1329 8.75001 13.1255H13.1255V8.75C13.1329 8.52288 13.2283 8.30755 13.3916 8.14951C13.5549 7.99147 13.7732 7.90311 14.0005 7.90311C14.2277 7.90311 14.446 7.99147 14.6093 8.14951C14.7726 8.30755 14.8681 8.52288 14.8755 8.75V13.1255H19.2509C19.4781 13.1329 19.6934 13.2283 19.8514 13.3916C20.0095 13.5549 20.0978 13.7732 20.0978 14.0005C20.0978 14.2277 20.0095 14.446 19.8514 14.6093C19.6934 14.7726 19.4781 14.868 19.2509 14.8755H14.8755V19.2509C14.8681 19.4781 14.7726 19.6934 14.6093 19.8514C14.446 20.0095 14.2277 20.0978 14.0005 20.0978C13.7732 20.0978 13.5549 20.0095 13.3916 19.8514C13.2283 19.6934 13.1329 19.4771 13.1255 19.25ZM28 14C28 16.7689 27.1789 19.4757 25.6406 21.778C24.1022 24.0803 21.9157 25.8747 19.3576 26.9343C16.7994 27.9939 13.9845 28.2712 11.2687 27.731C8.55301 27.1908 6.05845 25.8574 4.10051 23.8995C2.14258 21.9416 0.809205 19.447 0.269012 16.7313C-0.271181 14.0155 0.006066 11.2006 1.06569 8.64243C2.12532 6.08427 3.91974 3.89777 6.22202 2.35943C8.52431 0.821086 11.2311 0 14 0C17.713 0 21.274 1.475 23.8995 4.10051C26.525 6.72601 28 10.287 28 14ZM14 1.75C11.5772 1.75 9.20877 2.46845 7.19427 3.8145C5.17977 5.16054 3.60966 7.07373 2.68248 9.31213C1.75531 11.5505 1.51272 14.0136 1.98539 16.3899C2.45806 18.7661 3.62475 20.9489 5.33795 22.6621C7.05114 24.3753 9.23388 25.542 11.6102 26.0146C13.9864 26.4873 16.4495 26.2447 18.6879 25.3175C20.9263 24.3904 22.8395 22.8202 24.1855 20.8057C25.5316 18.7912 26.25 16.4228 26.25 14C26.2498 10.7512 24.9591 7.63548 22.6618 5.33822C20.3645 3.04095 17.2488 1.75025 14 1.75Z" fill="var(--fill-0, #8C1D40)"/>
</svg>
