<svg preserveAspectRatio="none" width="100%" height="100%" overflow="visible" style="display: block;" viewBox="0 0 30 30" fill="none" xmlns="http://www.w3.org/2000/svg">
<path id="screwdriver-wrench" d="M13.0715 5.631V8.486L14.8645 10.23C14.681 9.33165 14.6998 8.40372 14.9196 7.51356C15.1394 6.6234 15.5546 5.79334 16.1352 5.08364C16.7157 4.37394 17.447 3.8024 18.2759 3.41051C19.1048 3.01863 20.0106 2.81623 20.9275 2.818H20.9935L17.5835 6.164L18.4695 11.473L23.7795 12.358L27.1335 9C27.1424 9.82685 26.985 10.647 26.6706 11.4118C26.3562 12.1767 25.8913 12.8704 25.3035 13.452C24.769 13.9879 24.1379 14.4178 23.4435 14.719C23.5435 14.819 23.6705 14.889 23.7735 14.991L25.5685 16.791C26.1963 16.4124 26.7765 15.9598 27.2965 15.443C28.3979 14.3376 29.1955 12.9668 29.6122 11.4631C30.029 9.9594 30.0507 8.37361 29.6755 6.859C29.5885 6.50903 29.4104 6.18836 29.1592 5.92962C28.908 5.67088 28.5927 5.48331 28.2455 5.386C27.9052 5.28537 27.5437 5.28136 27.2012 5.37442C26.8588 5.46749 26.549 5.65397 26.3065 5.913L22.8655 9.348L20.9655 9.033L20.6505 7.133L24.0875 3.7C24.3441 3.45586 24.5284 3.14569 24.6201 2.80361C24.7118 2.46152 24.7075 2.10077 24.6075 1.761C24.5117 1.41156 24.324 1.0942 24.0639 0.84199C23.8037 0.589776 23.4807 0.411936 23.1285 0.327C21.615 -0.0572081 20.0275 -0.0404288 18.5224 0.375684C17.0174 0.791798 15.6467 1.59288 14.5455 2.7C13.9736 3.28451 13.4743 3.93588 13.0585 4.64L13.1245 4.684L13.0715 5.631ZM6.21049 26.594C5.82929 26.9536 5.32505 27.1539 4.80099 27.1539C4.27693 27.1539 3.77269 26.9536 3.39149 26.594C3.20726 26.4199 3.06033 26.2102 2.95959 25.9777C2.85886 25.7451 2.80643 25.4945 2.80549 25.241C2.79884 24.9864 2.84783 24.7335 2.94904 24.4998C3.05025 24.2661 3.20125 24.0573 3.39149 23.888L11.2675 15.914L9.28149 13.927L1.40649 21.79C0.533281 22.6885 0.0311856 23.8834 0.000491174 25.136C-0.00870215 25.7686 0.111246 26.3963 0.352997 26.9809C0.594749 27.5655 0.953223 28.0947 1.40649 28.536C1.84776 28.9814 2.3729 29.3349 2.95158 29.5762C3.53027 29.8175 4.15102 29.9417 4.77799 29.9417C5.40496 29.9417 6.02571 29.8175 6.6044 29.5762C7.18308 29.3349 7.70822 28.9814 8.14949 28.536L14.0615 22.624C13.4968 21.7025 13.1812 20.6502 13.1455 19.57L6.21049 26.594ZM29.3595 23.178L22.4985 16.323C21.8549 15.6814 21.0264 15.2577 20.1294 15.1117C19.2325 14.9657 18.3123 15.1046 17.4985 15.509L11.1985 9.257V5.624L3.74549 0L0.000491174 3.7L5.62549 11.147H9.25949L15.5115 17.393C15.1091 18.2073 14.9713 19.1271 15.1174 20.0237C15.2635 20.9202 15.6863 21.7486 16.3265 22.393L23.1815 29.254C23.3838 29.4575 23.6244 29.6191 23.8894 29.7293C24.1543 29.8395 24.4385 29.8963 24.7255 29.8963C25.0125 29.8963 25.2966 29.8395 25.5616 29.7293C25.8266 29.6191 26.0672 29.4575 26.2695 29.254L29.3605 26.163C29.5618 25.9701 29.7221 25.7385 29.8315 25.4821C29.941 25.2257 29.9974 24.9498 29.9974 24.671C29.9974 24.3922 29.941 24.1163 29.8315 23.8599C29.7221 23.6035 29.5618 23.3719 29.3605 23.179L29.3595 23.178Z" fill="var(--fill-0, #00A3E0)"/>
</svg>
