<svg preserveAspectRatio="none" width="100%" height="100%" overflow="visible" style="display: block;" viewBox="0 0 18 14" fill="none" xmlns="http://www.w3.org/2000/svg">
<path id="Vector" d="M16.5094 0H12.1406C10.6375 0 9.33125 1.11291 9.00313 2.6837C8.67188 1.11291 7.36875 0 5.86562 0H1.5C0.671875 0 0 0.718549 0 1.6042V9.81905C0 10.7047 0.671875 11.4233 1.5 11.4233H4.30312C7.49687 11.4233 8.45 12.2387 8.90625 13.9298C8.92812 14.0234 9.06875 14.0234 9.09375 13.9298C9.55312 12.2387 10.5062 11.4233 13.6969 11.4233H16.5C17.3281 11.4233 18 10.7047 18 9.81905V1.60754C18 0.725233 17.3344 0.00668417 16.5094 0ZM7.5625 8.8699C7.5625 8.9334 7.51562 8.98687 7.45312 8.98687H2.44375C2.38437 8.98687 2.33437 8.93674 2.33437 8.8699V8.10456C2.33437 8.04106 2.38125 7.98759 2.44375 7.98759H7.45625C7.51563 7.98759 7.56563 8.03772 7.56563 8.10456V8.8699H7.5625ZM7.5625 6.83457C7.5625 6.89807 7.51562 6.95154 7.45312 6.95154H2.44375C2.38437 6.95154 2.33437 6.90141 2.33437 6.83457V6.06923C2.33437 6.00573 2.38125 5.95226 2.44375 5.95226H7.45625C7.51563 5.95226 7.56563 6.00239 7.56563 6.06923V6.83457H7.5625ZM7.5625 4.79924C7.5625 4.86274 7.51562 4.91621 7.45312 4.91621H2.44375C2.38437 4.91621 2.33437 4.86608 2.33437 4.79924V4.0339C2.33437 3.9704 2.38125 3.91693 2.44375 3.91693H7.45625C7.51563 3.91693 7.56563 3.96706 7.56563 4.0339V4.79924H7.5625ZM15.6656 8.86655C15.6656 8.93005 15.6187 8.98353 15.5562 8.98353H10.5469C10.4875 8.98353 10.4375 8.9334 10.4375 8.86655V8.10122C10.4375 8.03772 10.4844 7.98424 10.5469 7.98424H15.5594C15.6187 7.98424 15.6687 8.03438 15.6687 8.10122V8.86655H15.6656ZM15.6656 6.83122C15.6656 6.89472 15.6187 6.9482 15.5562 6.9482H10.5469C10.4875 6.9482 10.4375 6.89807 10.4375 6.83122V6.06589C10.4375 6.00239 10.4844 5.94891 10.5469 5.94891H15.5594C15.6187 5.94891 15.6687 5.99905 15.6687 6.06589V6.83122H15.6656ZM15.6656 4.79589C15.6656 4.85939 15.6187 4.91287 15.5562 4.91287H10.5469C10.4875 4.91287 10.4375 4.86274 10.4375 4.79589V4.0339C10.4375 3.9704 10.4844 3.91693 10.5469 3.91693H15.5594C15.6187 3.91693 15.6687 3.96706 15.6687 4.0339V4.79589H15.6656Z" fill="var(--fill-0, #484848)"/>
</svg>
