<svg preserveAspectRatio="none" width="100%" height="100%" overflow="visible" style="display: block;" viewBox="0 0 17 17" fill="none" xmlns="http://www.w3.org/2000/svg">
<path id="Star 1" d="M7.66215 1.53451C7.98431 0.663888 9.21569 0.663888 9.53785 1.53451L11.0333 5.57589C11.1346 5.84961 11.3504 6.06542 11.6241 6.1667L15.6655 7.66215C16.5361 7.98431 16.5361 9.21569 15.6655 9.53785L11.6241 11.0333C11.3504 11.1346 11.1346 11.3504 11.0333 11.6241L9.53785 15.6655C9.21569 16.5361 7.98431 16.5361 7.66215 15.6655L6.1667 11.6241C6.06542 11.3504 5.84961 11.1346 5.57589 11.0333L1.53451 9.53785C0.663888 9.21569 0.663888 7.98431 1.53451 7.66215L5.57589 6.1667C5.84961 6.06542 6.06542 5.84961 6.1667 5.57589L7.66215 1.53451Z" fill="var(--fill-0, #FFC627)"/>
</svg>
